<svg xmlns="http://www.w3.org/2000/svg" width="589" height="115" viewBox="0 0 589 115" role="img" aria-label="Handwritten note: the shape my thinking makes">
<style><![CDATA[

  svg{--ink:#8b8175;}
  @media (prefers-color-scheme: dark){svg{--ink:#b7ad9f;}}
  .ink{fill:var(--ink);opacity:1;transform-box:fill-box;transform-origin:center;
       animation:write .7s ease-out both, breathe 8s ease-in-out 2.2s infinite;}
  @keyframes write{from{opacity:0;transform:translateY(4px)}to{opacity:1;transform:translateY(0)}}
  @keyframes breathe{0%,100%{opacity:1}50%{opacity:.86}}
@media(prefers-reduced-motion:reduce){*{animation:none!important}}
]]></style>
<g><path class="ink" style="animation-delay:0.15s" d="M20.21 75.77Q19.57 75.65 18.87 75.04Q18.18 74.43 17.66 73.68Q17.13 72.93 16.96 72.35Q16.96 72.23 16.82 72.06Q16.67 71.88 16.67 71.88Q16.44 71.71 16.41 70.34Q16.38 68.98 16.55 67.30Q16.73 65.62 16.96 64.63Q17.25 63.70 17.83 62.11Q18.41 60.51 18.82 59.24L20.38 55.87L18.06 55.24Q17.66 55.12 17.39 54.77Q17.13 54.42 17.13 54.19Q17.13 53.73 17.66 53Q18.18 52.28 18.41 52.28Q18.70 52.34 19.48 52.34Q20.27 52.34 21.02 52.28Q21.77 52.22 21.95 52.16Q22.18 52.05 22.41 51.84Q22.64 51.64 22.76 51.23Q23.05 50.60 23.28 50.10Q23.51 49.61 23.92 48.91Q24.33 48.16 24.59 47.64Q24.85 47.12 25.43 46.19Q25.72 45.78 26.07 45.20Q26.41 44.62 26.94 44.22Q27.46 43.75 28.21 43.69Q28.97 43.64 29.84 44.39Q30.30 44.97 30.36 45.35Q30.42 45.72 29.89 46.54Q29.43 47.52 28.82 48.45Q28.21 49.38 27.69 50.36Q26.76 51.64 27.34 51.81Q27.92 51.99 30.59 51.58Q32.27 51.29 33.03 51.78Q33.78 52.28 33.90 53.26Q34.07 54.66 33.61 54.95Q33.14 55.24 30.94 55.24Q29.55 55.47 28.56 55.50Q27.57 55.53 27.11 55.53Q26.36 55.58 26.12 55.58Q25.89 55.58 25.43 55.70Q24.96 55.82 24.76 56.08Q24.56 56.34 24.33 56.80Q24.09 57.03 23.63 58.02Q23.17 59.01 22.47 60.17Q21.66 62.60 21.11 64.95Q20.56 67.30 20.15 69.56Q19.98 70.90 20.24 71.42Q20.50 71.94 21.72 72.06Q22.35 72.11 23.72 72.03Q25.08 71.94 25.89 71.71Q26.53 71.42 27.23 71.10Q27.92 70.78 28.50 70.43Q29.02 70.14 29.55 69.82Q30.07 69.50 30.07 69.50Q30.36 69.04 30.76 69.36Q31.17 69.68 31.40 70.37Q31.40 71.07 31.11 71.88Q30.82 72.69 28.97 73.74Q26.36 75.36 24.04 75.71Q21.72 76.06 20.21 75.77"/><path class="ink" style="animation-delay:0.22s" d="M37.14 73.16Q36.74 73.22 36.27 73.04Q35.81 72.87 35.40 72.58Q34.94 72.06 34.74 71.71Q34.53 71.36 34.59 70.75Q34.65 70.14 34.88 69.04Q35.17 68.11 35.58 66.49Q35.98 64.86 36.51 63.18Q36.62 62.31 36.94 61.35Q37.26 60.40 37.61 59.53Q37.96 58.66 38.13 58.19Q38.59 56.63 39.03 55.38Q39.46 54.13 40.10 52.48Q40.74 50.83 41.67 48.16Q42.94 44.68 43.61 42.88Q44.28 41.08 44.57 40.27Q44.86 39.46 44.97 39Q44.97 38.53 45.38 38.24Q45.79 37.95 46.25 37.95Q47.06 37.95 47.64 38.76Q48.22 39.58 48.40 40.71Q48.57 41.84 47.99 42.88Q47.06 44.97 46.08 47.72Q45.09 50.48 44.13 53.18Q43.18 55.87 42.31 57.85Q42.31 58.14 42.07 58.74Q41.84 59.35 41.61 59.82Q41.38 60.28 41.17 60.69Q40.97 61.09 40.97 61.09Q40.97 61.38 40.80 62.02Q40.62 62.66 40.39 63.41Q40.22 63.99 39.96 64.86Q39.70 65.73 39.58 66.43Q39.87 65.97 40.68 65.10Q41.49 64.23 42.31 63.47Q43.23 62.66 44.22 61.82Q45.21 60.98 45.90 60.51Q46.60 60.05 47.15 59.64Q47.70 59.24 47.70 59.24Q47.76 59.06 47.93 58.95Q48.11 58.83 48.34 58.83Q48.51 58.77 48.63 58.69Q48.74 58.60 48.86 58.37Q49.03 58.02 49.67 57.79Q50.31 57.56 51.12 57.44Q51.93 57.32 52.51 57.32Q53.21 57.32 53.73 57.70Q54.25 58.08 54.89 59.06Q55.53 59.93 55.70 61.12Q55.88 62.31 55.53 63.82Q55.53 64.28 55.36 65.27Q55.18 66.26 55.12 67.07L54.72 68.98L55.53 68.98Q56.05 68.92 56.52 69.07Q56.98 69.21 56.98 69.21Q57.21 69.45 57.47 69.65Q57.73 69.85 57.97 69.91Q58.55 70.03 58.26 70.69Q57.97 71.36 57.33 71.77Q55.94 72.69 54.83 72.78Q53.73 72.87 52.69 72.06Q51.70 71.13 51.44 69.97Q51.18 68.81 51.47 66.95Q51.70 64.40 51.76 63.24Q51.82 62.08 51.18 62.08Q50.54 62.08 49.18 62.83Q47.82 63.59 46.13 64.83Q44.45 66.08 42.83 67.62Q41.20 69.16 40.04 70.78Q39.35 71.65 38.65 72.38Q37.96 73.10 37.14 73.16"/><path class="ink" style="animation-delay:0.29s" d="M72.64 74.26Q71.25 75.30 69.54 75.45Q67.83 75.59 66.26 74.93Q64.69 74.26 63.65 72.93Q62.84 71.82 62.46 70.17Q62.08 68.52 62.37 65.79Q62.61 63.36 63.88 60.92Q65.16 58.48 67.01 56.60Q68.87 54.71 70.84 54.02Q71.65 53.50 72.35 53.47Q73.05 53.44 74.38 53.55Q75.71 53.73 76.50 54.13Q77.28 54.54 77.69 55.12Q78.61 55.99 78.90 56.86Q79.19 57.73 79.14 58.54Q78.90 59.99 77.45 61.94Q76 63.88 73.63 64.98Q72.47 65.39 71.02 65.39Q69.57 65.39 68.12 64.75Q66.90 64.34 66.52 64.95Q66.14 65.56 65.97 67.65Q65.85 69.50 66.38 70.43Q66.90 71.36 67.88 71.59Q69.10 71.82 69.74 71.80Q70.38 71.77 71.36 71.24Q72.12 70.78 72.41 70.61Q72.70 70.43 72.96 70.23Q73.22 70.03 73.68 69.56Q74.03 69.21 74.29 69.07Q74.55 68.92 74.84 68.92Q75.25 68.92 75.60 69.30Q75.95 69.68 76.18 69.97Q76.53 70.14 76.12 70.87Q75.71 71.59 74.79 72.55Q73.86 73.51 72.64 74.26M72.35 61.73Q72.87 61.50 73.60 60.92Q74.32 60.34 74.87 59.64Q75.42 58.95 75.42 58.54Q75.42 57.79 74.64 57.27Q73.86 56.74 72.41 57.09Q71.83 57.27 71.07 57.88Q70.32 58.48 69.62 59.24Q68.93 59.99 68.49 60.63Q68.06 61.27 68.06 61.44Q68.23 61.73 69.02 61.91Q69.80 62.08 70.76 62.02Q71.71 61.96 72.35 61.73"/><path class="ink" style="animation-delay:0.36s" d="M98.51 76.29Q97.12 75.71 96.16 74.87Q95.20 74.03 95.09 73.45Q95.14 72.98 95.35 72.75Q95.55 72.52 96.45 72.55Q97.35 72.58 99.32 72.93Q100.02 72.93 100.92 72.84Q101.81 72.75 102.60 72.55Q103.38 72.35 103.61 72.06Q103.90 72 103.73 71.80Q103.55 71.59 103.32 71.36Q103.09 71.30 102.80 71.13Q102.51 70.95 102.28 70.95Q102.22 70.66 101.73 70.32Q101.23 69.97 100.71 69.68Q99.44 68.63 98.45 67.82Q97.46 67.01 97.70 66.66Q97.70 66.43 97.70 66.40Q97.70 66.37 97.70 66.37Q97.29 66.37 96.86 65.21Q96.42 64.05 96.42 63.12Q96.42 62.31 96.86 61.21Q97.29 60.11 98.02 58.98Q98.74 57.85 99.49 57.09Q100.60 56.05 102.05 54.97Q103.50 53.90 105 53.03Q106.51 52.16 107.85 51.81Q108.77 51.47 109.73 51.47Q110.69 51.47 111.33 51.81Q111.85 51.93 112.40 52.45Q112.95 52.97 113.44 53.58Q113.94 54.19 114.11 54.71Q114.11 55.41 114.02 56.31Q113.94 57.21 113.76 57.88Q113.59 58.54 113.18 58.54Q113.18 58.54 113.04 58.57Q112.89 58.60 112.89 58.89Q112.89 59.47 112.02 60.22Q110.92 60.98 110.05 61.24Q109.18 61.50 108.89 60.86Q108.66 60.63 108.54 60.43Q108.43 60.22 108.19 60.11Q108.19 60.11 108.02 59.91Q107.85 59.70 107.85 59.35Q107.85 59.12 108.02 58.92Q108.19 58.72 108.19 58.72Q108.66 58.48 109.12 57.82Q109.59 57.15 109.88 56.48Q110.17 55.82 110.17 55.53Q110.17 55.18 110.08 55.09Q109.99 55 109.53 55Q108.89 55.24 107.79 55.79Q106.69 56.34 105.67 56.92Q104.66 57.50 104.13 58.02Q103.90 58.43 103.84 58.51Q103.79 58.60 103.55 58.60Q103.55 58.37 103.21 58.74Q102.86 59.12 102.34 59.82Q101.81 60.51 101.35 61.18Q100.89 61.85 100.65 62.20Q100.60 62.43 100.42 62.95Q100.25 63.47 100.25 63.94Q100.13 64.57 100.51 64.92Q100.89 65.27 101.87 66.08Q103.90 67.59 105 68.55Q106.11 69.50 106.63 70.11Q107.15 70.72 107.27 71.24Q108.31 72.98 107.79 74.03Q107.27 75.07 105.70 75.77Q105.12 76.06 103.73 76.26Q102.34 76.46 100.89 76.49Q99.44 76.52 98.51 76.29"/><path class="ink" style="animation-delay:0.43s" d="M117.24 73.16Q116.84 73.22 116.37 73.04Q115.91 72.87 115.50 72.58Q115.04 72.06 114.84 71.71Q114.63 71.36 114.69 70.75Q114.75 70.14 114.98 69.04Q115.27 68.11 115.68 66.49Q116.08 64.86 116.60 63.18Q116.72 62.31 117.04 61.35Q117.36 60.40 117.71 59.53Q118.05 58.66 118.23 58.19Q118.69 56.63 119.13 55.38Q119.56 54.13 120.20 52.48Q120.84 50.83 121.77 48.16Q123.04 44.68 123.71 42.88Q124.38 41.08 124.67 40.27Q124.96 39.46 125.07 39Q125.07 38.53 125.48 38.24Q125.88 37.95 126.35 37.95Q127.16 37.95 127.74 38.76Q128.32 39.58 128.49 40.71Q128.67 41.84 128.09 42.88Q127.16 44.97 126.17 47.72Q125.19 50.48 124.23 53.18Q123.27 55.87 122.40 57.85Q122.40 58.14 122.17 58.74Q121.94 59.35 121.71 59.82Q121.48 60.28 121.27 60.69Q121.07 61.09 121.07 61.09Q121.07 61.38 120.90 62.02Q120.72 62.66 120.49 63.41Q120.32 63.99 120.06 64.86Q119.79 65.73 119.68 66.43Q119.97 65.97 120.78 65.10Q121.59 64.23 122.40 63.47Q123.33 62.66 124.32 61.82Q125.30 60.98 126 60.51Q126.70 60.05 127.25 59.64Q127.80 59.24 127.80 59.24Q127.86 59.06 128.03 58.95Q128.20 58.83 128.44 58.83Q128.61 58.77 128.73 58.69Q128.84 58.60 128.96 58.37Q129.13 58.02 129.77 57.79Q130.41 57.56 131.22 57.44Q132.03 57.32 132.61 57.32Q133.31 57.32 133.83 57.70Q134.35 58.08 134.99 59.06Q135.63 59.93 135.80 61.12Q135.98 62.31 135.63 63.82Q135.63 64.28 135.45 65.27Q135.28 66.26 135.22 67.07L134.82 68.98L135.63 68.98Q136.15 68.92 136.61 69.07Q137.08 69.21 137.08 69.21Q137.31 69.45 137.57 69.65Q137.83 69.85 138.06 69.91Q138.64 70.03 138.35 70.69Q138.06 71.36 137.43 71.77Q136.03 72.69 134.93 72.78Q133.83 72.87 132.79 72.06Q131.80 71.13 131.54 69.97Q131.28 68.81 131.57 66.95Q131.80 64.40 131.86 63.24Q131.92 62.08 131.28 62.08Q130.64 62.08 129.28 62.83Q127.91 63.59 126.23 64.83Q124.55 66.08 122.93 67.62Q121.30 69.16 120.14 70.78Q119.45 71.65 118.75 72.38Q118.05 73.10 117.24 73.16"/><path class="ink" style="animation-delay:0.50s" d="M142.94 74.20Q142.70 73.74 142.21 73.42Q141.72 73.10 141.72 72.87Q141.72 72.64 141.60 72.29Q141.49 71.94 141.25 71.71Q140.96 71.36 141.34 70.08Q141.72 68.81 142.59 66.92Q143.46 65.04 144.56 63.01Q145.02 62.54 145.49 61.79Q145.95 61.04 146.18 60.80Q146.18 60.57 146.36 60.37Q146.53 60.17 146.76 60.17L146.88 59.64Q146.94 59.35 147.52 58.66Q148.10 57.96 148.91 57.12Q149.72 56.28 150.62 55.50Q151.52 54.71 152.10 54.37Q153.32 53.55 154.62 53.47Q155.93 53.38 156.86 54.13Q157.03 54.31 157.49 54.74Q157.96 55.18 158.60 55.73Q159.23 56.28 159.81 56.80L161.96 58.72L160.92 61.62Q160.16 63.94 160.54 65.68Q160.92 67.42 161.67 68.69Q161.96 69.33 162.71 69.82Q163.47 70.32 164.28 70.43Q164.74 70.49 165.15 70.78Q165.56 71.07 165.56 71.71Q165.56 72.58 165.24 73.01Q164.92 73.45 164.34 73.56Q162.42 73.80 160.74 72.81Q159.06 71.82 157.67 69.16Q157.44 68.81 157.06 67.85Q156.68 66.89 156.62 66.60Q156.39 66.89 155.84 67.56Q155.29 68.23 154.94 68.58Q150.82 72.75 147.87 74.11Q144.91 75.48 142.94 74.20M145.37 70.43Q145.49 70.72 146.62 70.26Q147.75 69.79 149.20 68.63Q151.17 66.95 152.94 65.24Q154.71 63.53 155.93 61.79L157.20 59.70Q156.62 58.37 156.02 57.90Q155.41 57.44 154.94 57.44Q154.19 57.44 152.85 58.69Q151.52 59.93 149.95 62.08Q148.39 64.23 146.88 67.01Q146.24 68.23 145.81 69.33Q145.37 70.43 145.37 70.43"/><path class="ink" style="animation-delay:0.57s" d="M165.44 89.17Q165.21 89.17 164.83 89.19Q164.45 89.22 164.16 88.70Q163.93 88.41 163.76 87.75Q163.58 87.08 163.87 85.57Q164.16 84.58 164.34 83.63Q164.51 82.67 164.51 82.21Q164.51 81.97 164.66 81.31Q164.80 80.64 164.80 80.35Q165.09 79.89 165.27 79.07Q165.44 78.26 165.44 77.62Q165.44 76.93 166.14 76.35Q166.14 75.88 166.34 75.19Q166.54 74.49 166.54 74.26Q166.72 73.45 167.33 71.39Q167.93 69.33 168.83 66.72Q169.73 64.11 170.60 61.62Q171.47 59.12 172.17 57.38Q172.86 55.76 173.18 54.51Q173.50 53.26 173.50 52.68Q173.50 52.45 173.62 52.31Q173.73 52.16 174.14 51.70Q174.72 51.12 175.33 51.32Q175.94 51.52 176.58 51.99Q177.04 52.74 177.24 53.29Q177.45 53.84 177.21 55.12Q177.21 55.99 176.90 56.66Q176.58 57.32 176.32 57.67Q176.05 58.02 176.17 57.96Q178.61 56.69 180.52 56.60Q182.43 56.51 183.74 57.27Q185.04 58.02 185.71 59.35Q186.38 60.69 186.38 62.37Q186.38 63.07 186.03 64.08Q185.68 65.10 185.19 65.97Q184.70 66.84 184.35 67.18Q184.12 67.18 183.88 67.56Q183.65 67.94 183.42 68.40Q182.96 68.98 181.94 69.71Q180.93 70.43 179.88 70.87Q178.84 71.30 178.37 71.13Q178.37 71.13 178.23 71.19Q178.08 71.24 178.08 71.53Q178.08 71.65 177.21 72.03Q176.34 72.40 175.16 72.69Q173.97 72.98 173.04 72.98Q171.82 72.98 171.30 72.52Q171.18 72.64 171.04 72.87Q170.89 73.10 170.89 73.27Q170.89 73.62 170.63 74.52Q170.37 75.42 170.02 76.20Q169.67 76.99 169.38 76.99Q169.38 76.99 169.27 77.16Q169.15 77.33 169.38 77.62Q169.38 77.62 169.36 78.29Q169.33 78.96 169.04 79.42Q169.04 79.89 168.86 80.81Q168.69 81.74 168.46 82.21Q168.46 82.90 168.25 83.57Q168.05 84.24 167.82 84.24Q167.59 84.29 167.53 84.96Q167.47 85.63 167.47 85.92Q167.41 87.37 166.77 88.27Q166.14 89.17 165.44 89.17M172.57 69.50Q173.04 69.50 174.43 69.10Q175.82 68.69 177.27 68.08Q178.72 67.47 179.48 66.84Q180.98 65.50 181.83 63.94Q182.67 62.37 181.68 60.80Q181.22 59.99 180.09 60.14Q178.95 60.28 177.56 61.09Q176.17 61.91 174.89 63.12Q174.20 63.88 173.62 64.92Q173.04 65.97 172.66 67.01Q172.28 68.05 172.23 68.78Q172.17 69.50 172.57 69.50"/><path class="ink" style="animation-delay:0.64s" d="M200.18 74.26Q198.79 75.30 197.08 75.45Q195.37 75.59 193.80 74.93Q192.24 74.26 191.19 72.93Q190.38 71.82 190 70.17Q189.63 68.52 189.92 65.79Q190.15 63.36 191.42 60.92Q192.70 58.48 194.56 56.60Q196.41 54.71 198.38 54.02Q199.20 53.50 199.89 53.47Q200.59 53.44 201.92 53.55Q203.26 53.73 204.04 54.13Q204.82 54.54 205.23 55.12Q206.16 55.99 206.45 56.86Q206.74 57.73 206.68 58.54Q206.45 59.99 205 61.94Q203.55 63.88 201.17 64.98Q200.01 65.39 198.56 65.39Q197.11 65.39 195.66 64.75Q194.44 64.34 194.06 64.95Q193.69 65.56 193.51 67.65Q193.40 69.50 193.92 70.43Q194.44 71.36 195.43 71.59Q196.64 71.82 197.28 71.80Q197.92 71.77 198.91 71.24Q199.66 70.78 199.95 70.61Q200.24 70.43 200.50 70.23Q200.76 70.03 201.23 69.56Q201.57 69.21 201.84 69.07Q202.10 68.92 202.39 68.92Q202.79 68.92 203.14 69.30Q203.49 69.68 203.72 69.97Q204.07 70.14 203.66 70.87Q203.26 71.59 202.33 72.55Q201.40 73.51 200.18 74.26M199.89 61.73Q200.41 61.50 201.14 60.92Q201.86 60.34 202.42 59.64Q202.97 58.95 202.97 58.54Q202.97 57.79 202.18 57.27Q201.40 56.74 199.95 57.09Q199.37 57.27 198.62 57.88Q197.86 58.48 197.17 59.24Q196.47 59.99 196.04 60.63Q195.60 61.27 195.60 61.44Q195.77 61.73 196.56 61.91Q197.34 62.08 198.30 62.02Q199.25 61.96 199.89 61.73"/><path class="ink" style="animation-delay:0.71s" d="M249.13 73.91Q248.79 73.80 248.12 73.27Q247.45 72.75 246.96 71.56Q246.47 70.37 246.47 68.34Q246.52 66.60 246.61 65.70Q246.70 64.81 246.29 64.81Q245.89 64.81 244.73 65.59Q243.57 66.37 241.97 67.79Q240.38 69.21 238.58 71.19Q237.94 71.77 237.30 72.43Q236.66 73.10 236.03 73.33Q235.39 73.56 234.69 72.98L234.11 72.46Q233.76 72.17 233.62 71.77Q233.47 71.36 233.59 70.95L235.04 66.89Q235.91 64.98 236.23 64.11Q236.55 63.24 236.52 63.01Q236.49 62.78 236.32 62.83Q235.85 62.89 235.04 63.41Q234.23 63.94 233.94 64.34Q233.71 64.34 233.27 64.86Q232.84 65.39 232.26 65.79Q231.85 66.37 230.78 67.42Q229.70 68.46 228.60 69.62Q227.85 70.26 227.04 71.27Q226.22 72.29 225.64 73.04Q225.06 73.80 224.89 73.80Q224.02 73.80 223.35 73.30Q222.69 72.81 222.40 71.88Q221.93 71.01 222.34 69.27Q222.74 67.53 223.44 64.40Q223.67 63.53 223.76 63.04Q223.85 62.54 224.02 62.05Q224.19 61.56 224.57 60.66Q224.95 59.76 225.64 58.14Q225.99 57.15 226.05 56.54Q226.11 55.93 226.05 55.58Q226.05 54.95 226.46 54.48Q226.86 54.02 227.41 53.84Q227.96 53.67 228.37 53.79Q229.30 53.90 229.82 54.60Q230.34 55.29 230.40 56.22Q230.46 56.98 230.26 57.56Q230.05 58.14 229.88 58.60L229.24 60.17Q228.83 61.04 228.46 62.05Q228.08 63.07 227.82 63.82Q227.56 64.57 227.56 64.75Q227.62 64.92 228.02 64.63Q228.43 64.34 229.01 63.82Q229.59 63.30 230.17 62.83Q231.33 61.73 232.75 60.72Q234.17 59.70 235.48 58.98Q236.78 58.25 237.53 58.02Q238.52 58.08 239.07 58.57Q239.62 59.06 240.32 59.88Q240.67 60.46 240.64 61.12Q240.61 61.79 240.49 62.37Q240.43 62.60 240.17 63.41Q239.91 64.23 239.68 64.95Q239.45 65.68 239.45 65.68Q239.45 65.68 240.03 65.15Q240.61 64.63 241.33 64.02Q242.06 63.41 242.52 63.07Q245.02 61.15 246.70 60.66Q248.38 60.17 249.48 61.79Q250.18 62.43 250.27 63.30Q250.35 64.17 250.35 66.02Q250.41 66.78 250.47 67.79Q250.53 68.81 250.64 69.59Q250.76 70.37 250.87 70.55Q251.05 70.78 251.54 70.95Q252.03 71.13 252.67 71.24Q253.54 71.48 253.69 72.26Q253.83 73.04 252.90 73.62Q252.03 74.14 251.02 74.14Q250 74.14 249.13 73.91"/><path class="ink" style="animation-delay:0.78s" d="M254.24 87.72Q252.61 88.12 250.87 87.86Q249.13 87.60 247.89 86.85Q246.64 86.09 246.41 85.16Q246.23 84.47 246.64 84Q247.05 83.54 247.63 83.39Q248.21 83.25 248.50 83.60Q248.96 83.89 250.12 84.38Q251.28 84.87 252.79 84.58Q254.12 84.29 255.34 83.11Q256.56 81.92 257.37 80.81Q257.83 80.12 258.94 78.32Q260.04 76.52 261.23 74.35Q262.42 72.17 263.23 70.32Q263.40 69.85 263.63 69.21Q263.87 68.58 264.21 68.17Q264.56 67.47 264.82 66.86Q265.08 66.26 265.14 66.02Q265.20 65.73 265.66 64.86Q266.13 63.99 266.53 63.12Q266.82 62.25 267.40 60.57Q267.98 58.89 268.56 57.85Q269.26 56.51 269.70 55.67Q270.13 54.83 270.65 54.66Q271.17 54.25 271.46 54.25Q271.75 54.25 272.39 54.60Q273.09 55.29 273.35 55.96Q273.61 56.63 273.35 57.58Q273.09 58.54 272.22 60.17Q271.75 61.56 271.20 62.69Q270.65 63.82 270.36 64.17Q270.07 64.86 269.70 65.70Q269.32 66.55 269.03 67.24Q267.98 69.56 267.23 71.01Q266.48 72.46 265.90 73.68Q265.32 74.90 264.68 76.52Q263.34 78.67 262.10 80.61Q260.85 82.55 259.46 84.24Q258.88 84.76 257.95 85.51Q257.02 86.27 256.04 86.88Q255.05 87.48 254.24 87.72M261.89 74.09Q261.02 73.97 260.13 72.98Q259.23 72 258.70 70.92Q258.18 69.85 258.30 69.39Q258.30 69.10 258.30 68.92Q258.30 68.75 258.30 68.75Q257.95 68.75 257.69 67.82Q257.43 66.89 257.34 65.44Q257.25 63.99 257.23 62.40Q257.20 60.80 257.31 59.41Q257.54 58.43 257.54 57.24Q257.54 56.05 257.60 55.35Q257.54 54.42 257.86 54.02Q258.18 53.61 258.41 53.44Q260.21 52.68 260.91 54.34Q261.60 55.99 261.31 60.17Q261.20 62.49 261.26 64.75Q261.31 67.01 261.84 68.66Q262.36 70.32 263.34 70.95Q263.75 71.19 263.69 71.71Q263.63 72.23 263.34 72.81Q263.05 73.39 262.65 73.77Q262.24 74.14 261.89 74.09"/><path class="ink" style="animation-delay:0.85s" d="M293.56 75.77Q292.92 75.65 292.23 75.04Q291.53 74.43 291.01 73.68Q290.49 72.93 290.31 72.35Q290.31 72.23 290.17 72.06Q290.02 71.88 290.02 71.88Q289.79 71.71 289.76 70.34Q289.73 68.98 289.91 67.30Q290.08 65.62 290.31 64.63Q290.60 63.70 291.18 62.11Q291.76 60.51 292.17 59.24L293.74 55.87L291.42 55.24Q291.01 55.12 290.75 54.77Q290.49 54.42 290.49 54.19Q290.49 53.73 291.01 53Q291.53 52.28 291.76 52.28Q292.05 52.34 292.84 52.34Q293.62 52.34 294.37 52.28Q295.13 52.22 295.30 52.16Q295.53 52.05 295.77 51.84Q296 51.64 296.11 51.23Q296.40 50.60 296.64 50.10Q296.87 49.61 297.27 48.91Q297.68 48.16 297.94 47.64Q298.20 47.12 298.78 46.19Q299.07 45.78 299.42 45.20Q299.77 44.62 300.29 44.22Q300.81 43.75 301.57 43.69Q302.32 43.64 303.19 44.39Q303.65 44.97 303.71 45.35Q303.77 45.72 303.25 46.54Q302.78 47.52 302.18 48.45Q301.57 49.38 301.04 50.36Q300.12 51.64 300.70 51.81Q301.28 51.99 303.94 51.58Q305.63 51.29 306.38 51.78Q307.13 52.28 307.25 53.26Q307.42 54.66 306.96 54.95Q306.50 55.24 304.29 55.24Q302.90 55.47 301.91 55.50Q300.93 55.53 300.46 55.53Q299.71 55.58 299.48 55.58Q299.25 55.58 298.78 55.70Q298.32 55.82 298.12 56.08Q297.91 56.34 297.68 56.80Q297.45 57.03 296.98 58.02Q296.52 59.01 295.82 60.17Q295.01 62.60 294.46 64.95Q293.91 67.30 293.50 69.56Q293.33 70.90 293.59 71.42Q293.85 71.94 295.07 72.06Q295.71 72.11 297.07 72.03Q298.43 71.94 299.25 71.71Q299.88 71.42 300.58 71.10Q301.28 70.78 301.86 70.43Q302.38 70.14 302.90 69.82Q303.42 69.50 303.42 69.50Q303.71 69.04 304.12 69.36Q304.52 69.68 304.76 70.37Q304.76 71.07 304.47 71.88Q304.18 72.69 302.32 73.74Q299.71 75.36 297.39 75.71Q295.07 76.06 293.56 75.77"/><path class="ink" style="animation-delay:0.92s" d="M310.50 73.16Q310.09 73.22 309.63 73.04Q309.16 72.87 308.76 72.58Q308.29 72.06 308.09 71.71Q307.89 71.36 307.95 70.75Q308 70.14 308.24 69.04Q308.53 68.11 308.93 66.49Q309.34 64.86 309.86 63.18Q309.98 62.31 310.30 61.35Q310.61 60.40 310.96 59.53Q311.31 58.66 311.48 58.19Q311.95 56.63 312.38 55.38Q312.82 54.13 313.46 52.48Q314.09 50.83 315.02 48.16Q316.30 44.68 316.97 42.88Q317.63 41.08 317.92 40.27Q318.21 39.46 318.33 39Q318.33 38.53 318.73 38.24Q319.14 37.95 319.60 37.95Q320.42 37.95 321 38.76Q321.58 39.58 321.75 40.71Q321.92 41.84 321.34 42.88Q320.42 44.97 319.43 47.72Q318.44 50.48 317.49 53.18Q316.53 55.87 315.66 57.85Q315.66 58.14 315.43 58.74Q315.20 59.35 314.96 59.82Q314.73 60.28 314.53 60.69Q314.33 61.09 314.33 61.09Q314.33 61.38 314.15 62.02Q313.98 62.66 313.75 63.41Q313.57 63.99 313.31 64.86Q313.05 65.73 312.93 66.43Q313.22 65.97 314.04 65.10Q314.85 64.23 315.66 63.47Q316.59 62.66 317.57 61.82Q318.56 60.98 319.26 60.51Q319.95 60.05 320.50 59.64Q321.05 59.24 321.05 59.24Q321.11 59.06 321.29 58.95Q321.46 58.83 321.69 58.83Q321.87 58.77 321.98 58.69Q322.10 58.60 322.21 58.37Q322.39 58.02 323.03 57.79Q323.66 57.56 324.48 57.44Q325.29 57.32 325.87 57.32Q326.56 57.32 327.09 57.70Q327.61 58.08 328.25 59.06Q328.88 59.93 329.06 61.12Q329.23 62.31 328.88 63.82Q328.88 64.28 328.71 65.27Q328.54 66.26 328.48 67.07L328.07 68.98L328.88 68.98Q329.41 68.92 329.87 69.07Q330.33 69.21 330.33 69.21Q330.57 69.45 330.83 69.65Q331.09 69.85 331.32 69.91Q331.90 70.03 331.61 70.69Q331.32 71.36 330.68 71.77Q329.29 72.69 328.19 72.78Q327.09 72.87 326.04 72.06Q325.06 71.13 324.80 69.97Q324.53 68.81 324.82 66.95Q325.06 64.40 325.11 63.24Q325.17 62.08 324.53 62.08Q323.90 62.08 322.53 62.83Q321.17 63.59 319.49 64.83Q317.81 66.08 316.18 67.62Q314.56 69.16 313.40 70.78Q312.70 71.65 312.01 72.38Q311.31 73.10 310.50 73.16"/><path class="ink" style="animation-delay:0.98s" d="M335.90 74.43Q335.44 73.97 335.24 73.19Q335.03 72.40 335.09 71.65Q335.15 70.90 335.38 70.43Q335.38 69.97 335.53 69.71Q335.67 69.45 335.61 69.21Q335.55 68.98 335.73 68.40Q335.90 67.82 336.08 67.30Q336.48 66.37 336.98 65.01Q337.47 63.65 337.90 62.28Q338.34 60.92 338.66 59.93Q338.98 58.95 339.03 58.72Q339.03 58.02 339.96 57.96Q340.66 57.73 341.21 58.14Q341.76 58.54 342.34 59.47Q342.80 59.93 342.69 60.80Q342.57 61.67 341.93 63.07Q341.70 63.53 341.38 64.46Q341.06 65.39 340.95 66.08Q340.72 66.55 340.40 67.39Q340.08 68.23 339.85 68.98Q339.73 69.27 339.61 69.91Q339.50 70.55 339.32 71.22Q339.15 71.88 338.86 72.35Q338.34 74.72 337.61 75.13Q336.89 75.54 335.90 74.43M341.76 51Q341.35 50.65 341.09 50.05Q340.83 49.44 340.77 48.94Q340.72 48.45 340.89 48.39Q341.41 48.16 341.96 47.20Q342.51 46.25 342.63 45.49Q342.69 45.26 342.86 45.03Q343.04 44.80 343.27 44.74Q343.96 44.27 344.83 44.65Q345.70 45.03 346.28 45.96Q346.81 47.06 346.57 47.93Q346.34 48.80 345.30 50.07Q344.43 51.23 343.50 51.41Q342.57 51.58 341.76 51"/><path class="ink" style="animation-delay:1.05s" d="M366.76 73.74Q365.60 73.74 364.81 73.25Q364.03 72.75 363.51 71.53Q363.28 70.72 363.19 69.71Q363.10 68.69 363.13 67.76Q363.16 66.84 363.28 66.43Q363.45 66.20 363.42 65.68Q363.39 65.15 363.39 64.63Q363.34 63.53 362.90 63.38Q362.47 63.24 361.60 63.65Q360.49 64.28 358.90 65.33Q357.30 66.37 355.56 67.62Q353.82 68.87 352.20 70.26Q350.92 71.65 350.55 72.43Q350.17 73.22 349.65 73.22Q349.18 73.45 348.81 73.19Q348.43 72.93 347.85 72.46Q347.44 72 346.98 71.48Q346.52 70.95 346.40 70.72Q346.40 70.20 346.57 69.33Q346.75 68.46 347.01 67.59Q347.27 66.72 347.50 66.14Q347.79 66.02 348 65.50Q348.20 64.98 348.60 64.34Q348.78 63.59 349.24 62.46Q349.71 61.33 350.11 60.40Q350.87 58.95 351.19 57.96Q351.50 56.98 351.68 55.64Q351.62 55.41 351.77 55.21Q351.91 55 352.14 55L352.20 55Q352.66 54.60 353.45 54.80Q354.23 55 354.81 55.58Q355.91 56.86 355.74 58.43Q355.56 59.99 353.88 62.72Q353.48 63.65 353.22 64.23Q352.95 64.81 352.95 65.10Q352.95 65.10 353.50 64.72Q354.06 64.34 354.78 63.79Q355.51 63.24 355.97 62.95Q356.26 62.66 357.30 61.91Q358.35 61.15 359.51 60.37Q360.67 59.59 361.31 59.35Q361.83 59.06 362.50 58.77Q363.16 58.48 363.39 58.48Q363.92 58.48 364.67 58.95Q365.42 59.41 366.09 60.02Q366.76 60.63 366.87 61.09Q366.87 61.33 366.87 61.62Q366.87 61.91 366.93 62.14Q367.05 62.95 367.08 64.25Q367.11 65.56 367.05 66.69Q366.99 67.82 366.70 68.29Q366.70 68.29 366.73 68.40Q366.76 68.52 366.93 68.58Q366.93 68.75 366.93 68.81Q366.93 68.87 366.93 68.87Q366.82 69.04 366.90 69.50Q366.99 69.97 367.28 70.52Q367.57 71.07 367.86 71.53Q368.32 72.23 367.98 72.90Q367.63 73.56 366.76 73.74"/><path class="ink" style="animation-delay:1.12s" d="M373.72 75.88Q373.25 75.71 372.67 75.07Q372.09 74.43 371.66 73.62Q371.22 72.81 371.22 72.17Q371.51 71.53 371.98 69.91Q372.44 68.29 373.14 66.26Q373.60 65.62 373.86 64.75Q374.12 63.88 374.36 63.18Q374.82 62.20 375.43 60.77Q376.04 59.35 376.65 57.88Q377.26 56.40 377.72 55.35Q378.47 53.73 379.03 52.42Q379.58 51.12 380.13 49.78Q380.68 48.45 381.32 46.88Q382.07 45.20 382.80 43.49Q383.52 41.78 384.07 40.42Q384.62 39.05 384.74 38.47Q384.74 38.01 384.91 37.78Q385.09 37.55 385.38 37.55Q385.61 37.31 385.99 37.28Q386.36 37.26 386.59 37.26Q386.94 37.31 387.64 38.21Q388.33 39.11 388.33 39.81Q388.33 40.74 387.44 43.29Q386.54 45.84 384.91 49.15Q382.88 53.44 381.75 56.08Q380.62 58.72 380.19 59.96Q379.75 61.21 379.87 61.38Q379.87 61.38 380.56 61.09Q381.26 60.80 382.19 60.11Q382.82 59.76 383.58 59.18Q384.33 58.60 385.06 58.11Q385.78 57.61 386.25 57.50Q386.83 57.09 387.49 56.69Q388.16 56.28 388.51 56.05Q389.49 55.47 390.05 55.67Q390.60 55.87 391.12 56.57Q391.76 57.32 391.44 57.99Q391.12 58.66 389.55 59.70Q388.33 60.51 386.71 61.50Q385.09 62.49 383.81 63.24Q382.53 63.99 382.24 64.23Q382.24 64.23 382.74 65.07Q383.23 65.91 383.69 66.60Q384.16 67.53 384.74 68.52Q385.32 69.50 385.43 69.91Q386.07 71.42 387.15 72.06Q388.22 72.69 389.61 72.11Q390.65 71.71 391.23 71.91Q391.81 72.11 392.10 72.75Q392.34 73.22 392.28 73.51Q392.22 73.80 391.52 74.49Q390.25 75.59 388.97 76.06Q387.70 76.52 386.59 75.88Q385.61 75.59 384.42 74.41Q383.23 73.22 381.20 70.61Q381.20 70.37 380.94 69.82Q380.68 69.27 380.50 68.98Q380.27 68.52 379.95 68.03Q379.63 67.53 379.63 67.53Q379.58 67.18 379.37 66.84Q379.17 66.49 378.82 66.20Q378.13 66.08 377.75 66.63Q377.37 67.18 376.97 67.88Q376.68 68.63 376.27 69.82Q375.86 71.01 375.60 72.20Q375.34 73.39 375.40 74.14Q375.46 74.96 375.05 75.42Q374.65 75.88 373.72 75.88"/><path class="ink" style="animation-delay:1.19s" d="M394.54 74.43Q394.08 73.97 393.87 73.19Q393.67 72.40 393.73 71.65Q393.79 70.90 394.02 70.43Q394.02 69.97 394.16 69.71Q394.31 69.45 394.25 69.21Q394.19 68.98 394.37 68.40Q394.54 67.82 394.71 67.30Q395.12 66.37 395.61 65.01Q396.11 63.65 396.54 62.28Q396.98 60.92 397.30 59.93Q397.61 58.95 397.67 58.72Q397.67 58.02 398.60 57.96Q399.30 57.73 399.85 58.14Q400.40 58.54 400.98 59.47Q401.44 59.93 401.33 60.80Q401.21 61.67 400.57 63.07Q400.34 63.53 400.02 64.46Q399.70 65.39 399.59 66.08Q399.35 66.55 399.04 67.39Q398.72 68.23 398.48 68.98Q398.37 69.27 398.25 69.91Q398.14 70.55 397.96 71.22Q397.79 71.88 397.50 72.35Q396.98 74.72 396.25 75.13Q395.53 75.54 394.54 74.43M400.40 51Q399.99 50.65 399.73 50.05Q399.47 49.44 399.41 48.94Q399.35 48.45 399.53 48.39Q400.05 48.16 400.60 47.20Q401.15 46.25 401.27 45.49Q401.33 45.26 401.50 45.03Q401.67 44.80 401.91 44.74Q402.60 44.27 403.47 44.65Q404.34 45.03 404.92 45.96Q405.44 47.06 405.21 47.93Q404.98 48.80 403.94 50.07Q403.07 51.23 402.14 51.41Q401.21 51.58 400.40 51"/><path class="ink" style="animation-delay:1.26s" d="M425.40 73.74Q424.24 73.74 423.45 73.25Q422.67 72.75 422.15 71.53Q421.92 70.72 421.83 69.71Q421.74 68.69 421.77 67.76Q421.80 66.84 421.92 66.43Q422.09 66.20 422.06 65.68Q422.03 65.15 422.03 64.63Q421.97 63.53 421.54 63.38Q421.10 63.24 420.23 63.65Q419.13 64.28 417.54 65.33Q415.94 66.37 414.20 67.62Q412.46 68.87 410.84 70.26Q409.56 71.65 409.19 72.43Q408.81 73.22 408.29 73.22Q407.82 73.45 407.44 73.19Q407.07 72.93 406.49 72.46Q406.08 72 405.62 71.48Q405.15 70.95 405.04 70.72Q405.04 70.20 405.21 69.33Q405.39 68.46 405.65 67.59Q405.91 66.72 406.14 66.14Q406.43 66.02 406.63 65.50Q406.84 64.98 407.24 64.34Q407.42 63.59 407.88 62.46Q408.34 61.33 408.75 60.40Q409.50 58.95 409.82 57.96Q410.14 56.98 410.32 55.64Q410.26 55.41 410.40 55.21Q410.55 55 410.78 55L410.84 55Q411.30 54.60 412.08 54.80Q412.87 55 413.45 55.58Q414.55 56.86 414.38 58.43Q414.20 59.99 412.52 62.72Q412.11 63.65 411.85 64.23Q411.59 64.81 411.59 65.10Q411.59 65.10 412.14 64.72Q412.69 64.34 413.42 63.79Q414.14 63.24 414.61 62.95Q414.90 62.66 415.94 61.91Q416.99 61.15 418.15 60.37Q419.31 59.59 419.94 59.35Q420.47 59.06 421.13 58.77Q421.80 58.48 422.03 58.48Q422.55 58.48 423.31 58.95Q424.06 59.41 424.73 60.02Q425.40 60.63 425.51 61.09Q425.51 61.33 425.51 61.62Q425.51 61.91 425.57 62.14Q425.69 62.95 425.71 64.25Q425.74 65.56 425.69 66.69Q425.63 67.82 425.34 68.29Q425.34 68.29 425.37 68.40Q425.40 68.52 425.57 68.58Q425.57 68.75 425.57 68.81Q425.57 68.87 425.57 68.87Q425.45 69.04 425.54 69.50Q425.63 69.97 425.92 70.52Q426.21 71.07 426.50 71.53Q426.96 72.23 426.61 72.90Q426.27 73.56 425.40 73.74"/><path class="ink" style="animation-delay:1.33s" d="M437.63 87.25Q436.01 87.89 434.24 87.05Q432.47 86.21 431.20 84.41Q430.96 84.06 430.59 83.28Q430.21 82.50 429.89 81.66Q429.57 80.81 429.49 80.18Q429.40 79.54 429.57 79.42Q429.75 79.07 430.30 79.07Q430.85 79.07 431.37 79.31Q431.89 79.54 432.01 79.89Q432.18 80.29 432.47 80.84Q432.76 81.39 433.17 81.89Q433.57 82.38 433.81 82.50Q434.73 83.19 435.34 83.28Q435.95 83.37 436.36 83.08Q437.34 82.32 437.92 81.16Q438.50 80 439.32 77.45Q439.95 75.30 440.56 73.19Q441.17 71.07 441.69 69.74Q441.87 69.04 442.13 68.55Q442.39 68.05 442.62 67.82L442.97 67.82Q441.69 68.63 440.74 69.59Q439.78 70.55 438.27 71.19Q437.92 71.59 436.56 71.68Q435.20 71.77 433.92 71.36Q433.11 70.90 432.70 70.58Q432.30 70.26 432.07 69.77Q431.83 69.27 431.49 68.40Q431.08 67.53 431.37 65.56Q431.66 63.59 432.41 61.62Q433.11 60.17 434.44 58.48Q435.78 56.80 437.29 55.44Q438.79 54.08 440.01 53.73Q440.48 53.50 441.23 53.35Q441.98 53.21 443.03 53.50Q444.01 53.61 444.54 53.93Q445.06 54.25 446.22 55.24Q446.97 55.99 447.67 56.89Q448.36 57.79 448.65 58.60Q449.06 59.47 448.92 60.28Q448.77 61.09 448.19 61.85Q447.67 62.60 447.09 63.36Q446.51 64.11 446.22 65.44Q445.93 67.18 445.23 69.36Q444.54 71.53 444.07 73.39L443.14 76.99Q441.69 81.92 440.24 84.27Q438.79 86.61 437.63 87.25M435.84 68.23Q437 68.17 437.98 67.82Q438.97 67.47 439.87 66.60Q440.77 65.73 441.75 64.23Q442.74 62.83 443.14 61.41Q443.55 59.99 443.43 58.54Q443.38 57.61 443.06 57.32Q442.74 57.03 441.98 57.15Q440.88 57.32 439.72 58.25Q438.56 59.18 437.40 60.69Q436.53 61.85 435.95 63.47Q435.37 65.21 435.31 66.60Q435.26 68 435.84 68.23"/><path class="ink" style="animation-delay:1.40s" d="M492.62 73.91Q492.27 73.80 491.60 73.27Q490.94 72.75 490.44 71.56Q489.95 70.37 489.95 68.34Q490.01 66.60 490.10 65.70Q490.18 64.81 489.78 64.81Q489.37 64.81 488.21 65.59Q487.05 66.37 485.45 67.79Q483.86 69.21 482.06 71.19Q481.42 71.77 480.79 72.43Q480.15 73.10 479.51 73.33Q478.87 73.56 478.18 72.98L477.60 72.46Q477.25 72.17 477.10 71.77Q476.96 71.36 477.07 70.95L478.52 66.89Q479.39 64.98 479.71 64.11Q480.03 63.24 480 63.01Q479.97 62.78 479.80 62.83Q479.34 62.89 478.52 63.41Q477.71 63.94 477.42 64.34Q477.19 64.34 476.75 64.86Q476.32 65.39 475.74 65.79Q475.33 66.37 474.26 67.42Q473.19 68.46 472.09 69.62Q471.33 70.26 470.52 71.27Q469.71 72.29 469.13 73.04Q468.55 73.80 468.37 73.80Q467.50 73.80 466.84 73.30Q466.17 72.81 465.88 71.88Q465.42 71.01 465.82 69.27Q466.23 67.53 466.92 64.40Q467.16 63.53 467.24 63.04Q467.33 62.54 467.50 62.05Q467.68 61.56 468.06 60.66Q468.43 59.76 469.13 58.14Q469.48 57.15 469.53 56.54Q469.59 55.93 469.53 55.58Q469.53 54.95 469.94 54.48Q470.35 54.02 470.90 53.84Q471.45 53.67 471.85 53.79Q472.78 53.90 473.30 54.60Q473.83 55.29 473.88 56.22Q473.94 56.98 473.74 57.56Q473.54 58.14 473.36 58.60L472.72 60.17Q472.32 61.04 471.94 62.05Q471.56 63.07 471.30 63.82Q471.04 64.57 471.04 64.75Q471.10 64.92 471.51 64.63Q471.91 64.34 472.49 63.82Q473.07 63.30 473.65 62.83Q474.81 61.73 476.23 60.72Q477.65 59.70 478.96 58.98Q480.26 58.25 481.02 58.02Q482 58.08 482.56 58.57Q483.11 59.06 483.80 59.88Q484.15 60.46 484.12 61.12Q484.09 61.79 483.98 62.37Q483.92 62.60 483.66 63.41Q483.40 64.23 483.16 64.95Q482.93 65.68 482.93 65.68Q482.93 65.68 483.51 65.15Q484.09 64.63 484.82 64.02Q485.54 63.41 486.01 63.07Q488.50 61.15 490.18 60.66Q491.86 60.17 492.97 61.79Q493.66 62.43 493.75 63.30Q493.84 64.17 493.84 66.02Q493.89 66.78 493.95 67.79Q494.01 68.81 494.13 69.59Q494.24 70.37 494.36 70.55Q494.53 70.78 495.02 70.95Q495.52 71.13 496.16 71.24Q497.03 71.48 497.17 72.26Q497.32 73.04 496.39 73.62Q495.52 74.14 494.50 74.14Q493.49 74.14 492.62 73.91"/><path class="ink" style="animation-delay:1.47s" d="M499.58 74.20Q499.35 73.74 498.85 73.42Q498.36 73.10 498.36 72.87Q498.36 72.64 498.24 72.29Q498.13 71.94 497.90 71.71Q497.61 71.36 497.98 70.08Q498.36 68.81 499.23 66.92Q500.10 65.04 501.20 63.01Q501.67 62.54 502.13 61.79Q502.59 61.04 502.83 60.80Q502.83 60.57 503 60.37Q503.17 60.17 503.41 60.17L503.52 59.64Q503.58 59.35 504.16 58.66Q504.74 57.96 505.55 57.12Q506.36 56.28 507.26 55.50Q508.16 54.71 508.74 54.37Q509.96 53.55 511.26 53.47Q512.57 53.38 513.50 54.13Q513.67 54.31 514.14 54.74Q514.60 55.18 515.24 55.73Q515.88 56.28 516.46 56.80L518.60 58.72L517.56 61.62Q516.80 63.94 517.18 65.68Q517.56 67.42 518.31 68.69Q518.60 69.33 519.36 69.82Q520.11 70.32 520.92 70.43Q521.39 70.49 521.79 70.78Q522.20 71.07 522.20 71.71Q522.20 72.58 521.88 73.01Q521.56 73.45 520.98 73.56Q519.07 73.80 517.38 72.81Q515.70 71.82 514.31 69.16Q514.08 68.81 513.70 67.85Q513.32 66.89 513.27 66.60Q513.03 66.89 512.48 67.56Q511.93 68.23 511.58 68.58Q507.47 72.75 504.51 74.11Q501.55 75.48 499.58 74.20M502.01 70.43Q502.13 70.72 503.26 70.26Q504.39 69.79 505.84 68.63Q507.81 66.95 509.58 65.24Q511.35 63.53 512.57 61.79L513.85 59.70Q513.27 58.37 512.66 57.90Q512.05 57.44 511.58 57.44Q510.83 57.44 509.50 58.69Q508.16 59.93 506.60 62.08Q505.03 64.23 503.52 67.01Q502.88 68.23 502.45 69.33Q502.01 70.43 502.01 70.43"/><path class="ink" style="animation-delay:1.54s" d="M525.33 75.88Q524.87 75.71 524.29 75.07Q523.71 74.43 523.27 73.62Q522.84 72.81 522.84 72.17Q523.13 71.53 523.59 69.91Q524.05 68.29 524.75 66.26Q525.21 65.62 525.48 64.75Q525.74 63.88 525.97 63.18Q526.43 62.20 527.04 60.77Q527.65 59.35 528.26 57.88Q528.87 56.40 529.33 55.35Q530.09 53.73 530.64 52.42Q531.19 51.12 531.74 49.78Q532.29 48.45 532.93 46.88Q533.68 45.20 534.41 43.49Q535.13 41.78 535.68 40.42Q536.23 39.05 536.35 38.47Q536.35 38.01 536.52 37.78Q536.70 37.55 536.99 37.55Q537.22 37.31 537.60 37.28Q537.97 37.26 538.21 37.26Q538.55 37.31 539.25 38.21Q539.95 39.11 539.95 39.81Q539.95 40.74 539.05 43.29Q538.15 45.84 536.52 49.15Q534.49 53.44 533.36 56.08Q532.23 58.72 531.80 59.96Q531.36 61.21 531.48 61.38Q531.48 61.38 532.17 61.09Q532.87 60.80 533.80 60.11Q534.44 59.76 535.19 59.18Q535.94 58.60 536.67 58.11Q537.39 57.61 537.86 57.50Q538.44 57.09 539.11 56.69Q539.77 56.28 540.12 56.05Q541.11 55.47 541.66 55.67Q542.21 55.87 542.73 56.57Q543.37 57.32 543.05 57.99Q542.73 58.66 541.16 59.70Q539.95 60.51 538.32 61.50Q536.70 62.49 535.42 63.24Q534.15 63.99 533.86 64.23Q533.86 64.23 534.35 65.07Q534.84 65.91 535.31 66.60Q535.77 67.53 536.35 68.52Q536.93 69.50 537.05 69.91Q537.68 71.42 538.76 72.06Q539.83 72.69 541.22 72.11Q542.27 71.71 542.85 71.91Q543.43 72.11 543.72 72.75Q543.95 73.22 543.89 73.51Q543.83 73.80 543.14 74.49Q541.86 75.59 540.58 76.06Q539.31 76.52 538.21 75.88Q537.22 75.59 536.03 74.41Q534.84 73.22 532.81 70.61Q532.81 70.37 532.55 69.82Q532.29 69.27 532.12 68.98Q531.88 68.52 531.56 68.03Q531.25 67.53 531.25 67.53Q531.19 67.18 530.99 66.84Q530.78 66.49 530.43 66.20Q529.74 66.08 529.36 66.63Q528.98 67.18 528.58 67.88Q528.29 68.63 527.88 69.82Q527.48 71.01 527.22 72.20Q526.95 73.39 527.01 74.14Q527.07 74.96 526.66 75.42Q526.26 75.88 525.33 75.88"/><path class="ink" style="animation-delay:1.61s" d="M556.24 74.26Q554.85 75.30 553.14 75.45Q551.43 75.59 549.86 74.93Q548.30 74.26 547.25 72.93Q546.44 71.82 546.07 70.17Q545.69 68.52 545.98 65.79Q546.21 63.36 547.49 60.92Q548.76 58.48 550.62 56.60Q552.47 54.71 554.45 54.02Q555.26 53.50 555.95 53.47Q556.65 53.44 557.98 53.55Q559.32 53.73 560.10 54.13Q560.88 54.54 561.29 55.12Q562.22 55.99 562.51 56.86Q562.80 57.73 562.74 58.54Q562.51 59.99 561.06 61.94Q559.61 63.88 557.23 64.98Q556.07 65.39 554.62 65.39Q553.17 65.39 551.72 64.75Q550.50 64.34 550.13 64.95Q549.75 65.56 549.57 67.65Q549.46 69.50 549.98 70.43Q550.50 71.36 551.49 71.59Q552.71 71.82 553.34 71.80Q553.98 71.77 554.97 71.24Q555.72 70.78 556.01 70.61Q556.30 70.43 556.56 70.23Q556.82 70.03 557.29 69.56Q557.64 69.21 557.90 69.07Q558.16 68.92 558.45 68.92Q558.85 68.92 559.20 69.30Q559.55 69.68 559.78 69.97Q560.13 70.14 559.72 70.87Q559.32 71.59 558.39 72.55Q557.46 73.51 556.24 74.26M555.95 61.73Q556.48 61.50 557.20 60.92Q557.93 60.34 558.48 59.64Q559.03 58.95 559.03 58.54Q559.03 57.79 558.25 57.27Q557.46 56.74 556.01 57.09Q555.43 57.27 554.68 57.88Q553.92 58.48 553.23 59.24Q552.53 59.99 552.10 60.63Q551.66 61.27 551.66 61.44Q551.84 61.73 552.62 61.91Q553.40 62.08 554.36 62.02Q555.32 61.96 555.95 61.73"/><path class="ink" style="animation-delay:1.68s" d="M568.08 76.29Q566.68 75.71 565.73 74.87Q564.77 74.03 564.65 73.45Q564.71 72.98 564.92 72.75Q565.12 72.52 566.02 72.55Q566.92 72.58 568.89 72.93Q569.58 72.93 570.48 72.84Q571.38 72.75 572.17 72.55Q572.95 72.35 573.18 72.06Q573.47 72 573.30 71.80Q573.12 71.59 572.89 71.36Q572.66 71.30 572.37 71.13Q572.08 70.95 571.85 70.95Q571.79 70.66 571.30 70.32Q570.80 69.97 570.28 69.68Q569 68.63 568.02 67.82Q567.03 67.01 567.26 66.66Q567.26 66.43 567.26 66.40Q567.26 66.37 567.26 66.37Q566.86 66.37 566.42 65.21Q565.99 64.05 565.99 63.12Q565.99 62.31 566.42 61.21Q566.86 60.11 567.58 58.98Q568.31 57.85 569.06 57.09Q570.16 56.05 571.61 54.97Q573.06 53.90 574.57 53.03Q576.08 52.16 577.41 51.81Q578.34 51.47 579.30 51.47Q580.26 51.47 580.89 51.81Q581.42 51.93 581.97 52.45Q582.52 52.97 583.01 53.58Q583.50 54.19 583.68 54.71Q583.68 55.41 583.59 56.31Q583.50 57.21 583.33 57.88Q583.16 58.54 582.75 58.54Q582.75 58.54 582.61 58.57Q582.46 58.60 582.46 58.89Q582.46 59.47 581.59 60.22Q580.49 60.98 579.62 61.24Q578.75 61.50 578.46 60.86Q578.23 60.63 578.11 60.43Q577.99 60.22 577.76 60.11Q577.76 60.11 577.59 59.91Q577.41 59.70 577.41 59.35Q577.41 59.12 577.59 58.92Q577.76 58.72 577.76 58.72Q578.23 58.48 578.69 57.82Q579.15 57.15 579.44 56.48Q579.73 55.82 579.73 55.53Q579.73 55.18 579.65 55.09Q579.56 55 579.10 55Q578.46 55.24 577.36 55.79Q576.25 56.34 575.24 56.92Q574.22 57.50 573.70 58.02Q573.47 58.43 573.41 58.51Q573.35 58.60 573.12 58.60Q573.12 58.37 572.77 58.74Q572.43 59.12 571.90 59.82Q571.38 60.51 570.92 61.18Q570.45 61.85 570.22 62.20Q570.16 62.43 569.99 62.95Q569.82 63.47 569.82 63.94Q569.70 64.57 570.08 64.92Q570.45 65.27 571.44 66.08Q573.47 67.59 574.57 68.55Q575.67 69.50 576.20 70.11Q576.72 70.72 576.83 71.24Q577.88 72.98 577.36 74.03Q576.83 75.07 575.27 75.77Q574.69 76.06 573.30 76.26Q571.90 76.46 570.45 76.49Q569 76.52 568.08 76.29"/></g>
</svg>
