<svg xmlns="http://www.w3.org/2000/svg" width="900" height="150" viewBox="0 0 900 150" role="img" aria-label="Plate 02 — four systems">
<style><![CDATA[

  svg{--label:#8c8276;--plate:#a39a8c;--ferric:#997419;}
  @media (prefers-color-scheme: dark){svg{--label:#b3a999;--plate:#8a8175;--ferric:#c99c3e;}}
  .num{fill:var(--ferric);}
  .plate{fill:var(--plate);}
  .label{fill:var(--label);}
  .rule{stroke:var(--ferric);stroke-width:1.1;fill:none;}
@media(prefers-reduced-motion:reduce){*{animation:none!important}}
]]></style>
<path class="num" d="M35.68 119.72Q27.89 119.72 21.82 116.15Q15.75 112.59 12.32 106.38Q8.88 100.18 8.88 92.13Q8.88 84.21 12.32 78.20Q15.75 72.20 21.89 68.76Q28.02 65.33 35.81 65.33Q43.60 65.33 49.47 68.83Q55.35 72.33 58.71 78.47Q62.08 84.60 62.08 92.52Q62.08 100.44 58.71 106.58Q55.35 112.72 49.41 116.22Q43.47 119.72 35.68 119.72M37.13 118.13Q45.84 118.13 50 111.40Q54.16 104.67 54.16 94.11Q54.16 84.74 51.39 78.73Q48.62 72.72 44.13 69.82Q39.64 66.92 34.36 66.92Q25.91 66.92 21.29 73.78Q16.67 80.64 16.67 91.07Q16.67 98.73 19.18 104.87Q21.69 111 26.31 114.57Q30.93 118.13 37.13 118.13M71.85 116.42Q80.43 109.82 86.30 104.60Q92.18 99.39 95.74 95.23Q99.30 91.07 100.95 87.38Q102.60 83.68 102.60 79.98Q102.60 74.31 99.11 71.14Q95.61 67.97 90.46 67.97Q85.18 67.97 81.29 71.93Q77.39 75.89 75.15 83.94Q75.02 84.21 74.22 84.08Q73.43 83.94 73.56 83.55L78.58 64.14Q78.71 63.75 79.50 63.95Q80.30 64.14 80.03 64.41Q79.50 66.52 80.23 67.18Q80.96 67.84 81.88 67.84Q83.86 67.84 87.23 66.59Q90.59 65.33 95.21 65.33Q101.94 65.33 105.77 69.03Q109.60 72.72 109.60 78.53Q109.60 81.83 108.08 85.20Q106.56 88.56 103.26 92.39Q99.96 96.22 94.55 100.91Q89.14 105.59 81.22 111.66Q80.69 112.06 80.96 112.32Q81.22 112.59 81.75 112.59Q92.04 112.59 98.25 112.39Q104.45 112.19 107.69 111.40Q110.92 110.61 112.31 108.69Q113.69 106.78 114.48 103.48Q114.62 103.22 115.34 103.28Q116.07 103.35 116.07 103.61L114.22 116.55Q114.22 117.08 113.89 117.54Q113.56 118 113.03 118Q103.66 118 93.17 118Q82.67 118 72.77 118Q72.24 118 71.85 117.47Q71.45 116.94 71.85 116.42"/>
<g class="plate"><path d="M168.64 46L167.38 46L167.38 35.53L171.19 35.53Q172.65 35.53 173.41 36.33Q174.18 37.12 174.18 38.55Q174.18 39.97 173.41 40.77Q172.65 41.56 171.19 41.56L168.64 41.56L168.64 46M168.64 36.63L168.64 40.47L171.16 40.47Q171.96 40.47 172.40 40.07Q172.84 39.67 172.84 38.94L172.84 38.16Q172.84 37.42 172.40 37.02Q171.96 36.63 171.16 36.63"/><path d="M188.16 46L181.93 46L181.93 35.53L183.19 35.53L183.19 44.91L188.16 44.91"/><path d="M202.78 46L201.44 46L200.56 43.02L196.88 43.02L196 46L194.69 46L197.91 35.53L199.57 35.53L202.78 46M200.26 41.92L198.79 36.87L198.66 36.87L197.19 41.92"/><path d="M216.95 36.63L213.46 36.63L213.46 46L212.20 46L212.20 36.63L208.70 36.63L208.70 35.53L216.95 35.53"/><path d="M230.23 46L223.78 46L223.78 35.53L230.23 35.53L230.23 36.63L225.04 36.63L225.04 40.15L230.05 40.15L230.05 41.24L225.04 41.24L225.04 44.91L230.23 44.91"/></g>
<line class="rule" x1="166.03" y1="66" x2="894" y2="66"/>
<g class="label"><path d="M169.99 108L167.75 108L167.75 94.04L176.73 94.04L176.73 95.92L169.99 95.92L169.99 99.98L176.11 99.98L176.11 101.86L169.99 101.86"/><path d="M190.03 108.24Q188.71 108.24 187.74 107.75Q186.77 107.26 186.14 106.34Q185.51 105.42 185.21 104.08Q184.91 102.74 184.91 101.02Q184.91 99.32 185.21 97.97Q185.51 96.62 186.14 95.70Q186.77 94.78 187.74 94.29Q188.71 93.80 190.03 93.80Q191.35 93.80 192.32 94.29Q193.29 94.78 193.92 95.70Q194.55 96.62 194.85 97.97Q195.15 99.32 195.15 101.02Q195.15 102.74 194.85 104.08Q194.55 105.42 193.92 106.34Q193.29 107.26 192.32 107.75Q191.35 108.24 190.03 108.24M190.03 106.38Q191.53 106.38 192.15 105.25Q192.77 104.12 192.77 102.18L192.77 99.84Q192.77 97.92 192.15 96.79Q191.53 95.66 190.03 95.66Q188.53 95.66 187.91 96.79Q187.29 97.92 187.29 99.84L187.29 102.20Q187.29 104.12 187.91 105.25Q188.53 106.38 190.03 106.38"/><path d="M203.41 94.04L205.65 94.04L205.65 102.62Q205.65 103.48 205.70 104.18Q205.75 104.88 205.99 105.37Q206.23 105.86 206.71 106.12Q207.19 106.38 208.03 106.38Q208.87 106.38 209.35 106.12Q209.83 105.86 210.07 105.37Q210.31 104.88 210.36 104.18Q210.41 103.48 210.41 102.62L210.41 94.04L212.65 94.04L212.65 102.22Q212.65 103.72 212.48 104.85Q212.31 105.98 211.81 106.73Q211.31 107.48 210.40 107.86Q209.49 108.24 208.03 108.24Q206.57 108.24 205.66 107.86Q204.75 107.48 204.25 106.73Q203.75 105.98 203.58 104.85Q203.41 103.72 203.41 102.22"/><path d="M223.93 102.36L223.93 108L221.71 108L221.71 94.04L226.93 94.04Q228.93 94.04 229.98 95.16Q231.03 96.28 231.03 98.24Q231.03 99.84 230.25 100.88Q229.47 101.92 228.01 102.16L231.23 108L228.75 108L225.79 102.36L223.93 102.36M223.93 100.56L226.61 100.56Q228.69 100.56 228.69 98.66L228.69 97.80Q228.69 95.90 226.61 95.90L223.93 95.90"/><path d="M261.91 108.24Q260.09 108.24 258.85 107.60Q257.61 106.96 256.81 105.90L258.25 104.52Q259.05 105.48 259.95 105.93Q260.85 106.38 261.99 106.38Q263.31 106.38 264.02 105.78Q264.73 105.18 264.73 104.06Q264.73 103.16 264.21 102.67Q263.69 102.18 262.43 101.96L260.91 101.72Q259.91 101.56 259.23 101.19Q258.55 100.82 258.13 100.31Q257.71 99.80 257.52 99.17Q257.33 98.54 257.33 97.84Q257.33 95.86 258.61 94.83Q259.89 93.80 262.13 93.80Q263.79 93.80 264.96 94.33Q266.13 94.86 266.85 95.82L265.45 97.22Q264.87 96.52 264.08 96.09Q263.29 95.66 262.13 95.66Q260.89 95.66 260.24 96.19Q259.59 96.72 259.59 97.74Q259.59 98.60 260.10 99.09Q260.61 99.58 261.91 99.80L263.39 100.06Q265.27 100.40 266.13 101.43Q266.99 102.46 266.99 103.94Q266.99 104.90 266.66 105.70Q266.33 106.50 265.68 107.06Q265.03 107.62 264.08 107.93Q263.13 108.24 261.91 108.24"/><path d="M281.15 108L278.91 108L278.91 102.74L274.27 94.04L276.77 94.04L278.55 97.52L279.99 100.50L280.11 100.50L281.57 97.52L283.35 94.04L285.79 94.04L281.15 102.74"/><path d="M297.91 108.24Q296.09 108.24 294.85 107.60Q293.61 106.96 292.81 105.90L294.25 104.52Q295.05 105.48 295.95 105.93Q296.85 106.38 297.99 106.38Q299.31 106.38 300.02 105.78Q300.73 105.18 300.73 104.06Q300.73 103.16 300.21 102.67Q299.69 102.18 298.43 101.96L296.91 101.72Q295.91 101.56 295.23 101.19Q294.55 100.82 294.13 100.31Q293.71 99.80 293.52 99.17Q293.33 98.54 293.33 97.84Q293.33 95.86 294.61 94.83Q295.89 93.80 298.13 93.80Q299.79 93.80 300.96 94.33Q302.13 94.86 302.85 95.82L301.45 97.22Q300.87 96.52 300.08 96.09Q299.29 95.66 298.13 95.66Q296.89 95.66 296.24 96.19Q295.59 96.72 295.59 97.74Q295.59 98.60 296.10 99.09Q296.61 99.58 297.91 99.80L299.39 100.06Q301.27 100.40 302.13 101.43Q302.99 102.46 302.99 103.94Q302.99 104.90 302.66 105.70Q302.33 106.50 301.68 107.06Q301.03 107.62 300.08 107.93Q299.13 108.24 297.91 108.24"/><path d="M321.53 95.92L317.15 95.92L317.15 108L314.91 108L314.91 95.92L310.53 95.92L310.53 94.04L321.53 94.04"/><path d="M338.49 108L329.75 108L329.75 94.04L338.49 94.04L338.49 95.92L331.99 95.92L331.99 99.98L338.25 99.98L338.25 101.86L331.99 101.86L331.99 106.12L338.49 106.12"/><path d="M354.93 108L354.93 101.32L354.99 97.12L354.83 97.12L352.03 104.30L349.23 97.12L349.07 97.12L349.13 101.32L349.13 108L347.15 108L347.15 94.04L349.89 94.04L352.03 99.58L352.17 99.58L354.33 94.04L356.91 94.04L356.91 108"/><path d="M369.91 108.24Q368.09 108.24 366.85 107.60Q365.61 106.96 364.81 105.90L366.25 104.52Q367.05 105.48 367.95 105.93Q368.85 106.38 369.99 106.38Q371.31 106.38 372.02 105.78Q372.73 105.18 372.73 104.06Q372.73 103.16 372.21 102.67Q371.69 102.18 370.43 101.96L368.91 101.72Q367.91 101.56 367.23 101.19Q366.55 100.82 366.13 100.31Q365.71 99.80 365.52 99.17Q365.33 98.54 365.33 97.84Q365.33 95.86 366.61 94.83Q367.89 93.80 370.13 93.80Q371.79 93.80 372.96 94.33Q374.13 94.86 374.85 95.82L373.45 97.22Q372.87 96.52 372.08 96.09Q371.29 95.66 370.13 95.66Q368.89 95.66 368.24 96.19Q367.59 96.72 367.59 97.74Q367.59 98.60 368.10 99.09Q368.61 99.58 369.91 99.80L371.39 100.06Q373.27 100.40 374.13 101.43Q374.99 102.46 374.99 103.94Q374.99 104.90 374.66 105.70Q374.33 106.50 373.68 107.06Q373.03 107.62 372.08 107.93Q371.13 108.24 369.91 108.24"/></g>
</svg>
