<svg xmlns="http://www.w3.org/2000/svg" width="900" height="150" viewBox="0 0 900 150" role="img" aria-label="Plate 01 — semantic gravity field">
<style><![CDATA[

  svg{--label:#8c8276;--plate:#a39a8c;--ferric:#997419;}
  @media (prefers-color-scheme: dark){svg{--label:#b3a999;--plate:#8a8175;--ferric:#c99c3e;}}
  .num{fill:var(--ferric);transform-box:fill-box;transform-origin:center;
       animation:rise 1.3s cubic-bezier(.2,.7,.2,1) .1s both, breathe 7.5s ease-in-out 1.6s infinite;}
  .plate{fill:var(--plate);}
  .label{fill:var(--label);}
  .g{opacity:1;animation:fade .9s ease-out both;}
  .rule{stroke:var(--ferric);stroke-width:1.1;fill:none;stroke-dasharray:737.2;stroke-dashoffset:0;
        animation:draw 1.4s cubic-bezier(.4,0,.2,1) .35s both;}
  @keyframes rise{from{opacity:0;transform:translateY(9px)}to{opacity:1;transform:translateY(0)}}
  @keyframes breathe{0%,100%{opacity:1}50%{opacity:.8}}
  @keyframes fade{from{opacity:0}to{opacity:1}}
  @keyframes draw{from{stroke-dashoffset:737.2}to{stroke-dashoffset:0}}
@media(prefers-reduced-motion:reduce){*{animation:none!important}}
]]></style>
<path class="num" d="M35.68 119.72Q27.89 119.72 21.82 116.15Q15.75 112.59 12.32 106.38Q8.88 100.18 8.88 92.13Q8.88 84.21 12.32 78.20Q15.75 72.20 21.89 68.76Q28.02 65.33 35.81 65.33Q43.60 65.33 49.47 68.83Q55.35 72.33 58.71 78.47Q62.08 84.60 62.08 92.52Q62.08 100.44 58.71 106.58Q55.35 112.72 49.41 116.22Q43.47 119.72 35.68 119.72M37.13 118.13Q45.84 118.13 50 111.40Q54.16 104.67 54.16 94.11Q54.16 84.74 51.39 78.73Q48.62 72.72 44.13 69.82Q39.64 66.92 34.36 66.92Q25.91 66.92 21.29 73.78Q16.67 80.64 16.67 91.07Q16.67 98.73 19.18 104.87Q21.69 111 26.31 114.57Q30.93 118.13 37.13 118.13M85.84 107.31L85.84 77.74Q85.84 73.91 85.05 71.93Q84.26 69.95 81.75 69.29Q79.24 68.63 74.09 68.63Q73.70 68.63 73.70 67.84Q73.70 67.05 74.09 67.05Q77.13 67.05 80.89 67.18Q84.65 67.31 88.88 67.31Q93.10 67.31 96.93 67.18Q100.76 67.05 103.66 67.05Q104.06 67.05 104.06 67.84Q104.06 68.63 103.66 68.63Q98.91 68.63 96.33 69.29Q93.76 69.95 92.84 71.93Q91.91 73.91 91.91 77.74L91.91 107.31Q91.91 111.14 92.70 113.12Q93.50 115.10 96.07 115.76Q98.64 116.42 103.66 116.42Q104.06 116.42 104.06 117.21Q104.06 118 103.66 118Q100.76 118 96.93 117.87Q93.10 117.74 88.88 117.74Q84.78 117.74 80.96 117.87Q77.13 118 74.09 118Q73.70 118 73.70 117.21Q73.70 116.42 74.09 116.42Q78.98 116.42 81.48 115.76Q83.99 115.10 84.92 113.12Q85.84 111.14 85.84 107.31"/>
<g class="plate"><path class="g" style="animation-delay:0.15s" d="M159.40 46L158.14 46L158.14 35.53L161.95 35.53Q163.41 35.53 164.17 36.33Q164.94 37.12 164.94 38.55Q164.94 39.97 164.17 40.77Q163.41 41.56 161.95 41.56L159.40 41.56L159.40 46M159.40 36.63L159.40 40.47L161.92 40.47Q162.72 40.47 163.16 40.07Q163.60 39.67 163.60 38.94L163.60 38.16Q163.60 37.42 163.16 37.02Q162.72 36.63 161.92 36.63"/><path class="g" style="animation-delay:0.20s" d="M178.92 46L172.69 46L172.69 35.53L173.95 35.53L173.95 44.91L178.92 44.91"/><path class="g" style="animation-delay:0.25s" d="M193.54 46L192.21 46L191.32 43.02L187.65 43.02L186.76 46L185.46 46L188.67 35.53L190.33 35.53L193.54 46M191.02 41.92L189.55 36.87L189.42 36.87L187.95 41.92"/><path class="g" style="animation-delay:0.30s" d="M207.72 36.63L204.22 36.63L204.22 46L202.96 46L202.96 36.63L199.47 36.63L199.47 35.53L207.72 35.53"/><path class="g" style="animation-delay:0.35s" d="M220.99 46L214.54 46L214.54 35.53L220.99 35.53L220.99 36.63L215.80 36.63L215.80 40.15L220.81 40.15L220.81 41.24L215.80 41.24L215.80 44.91L220.99 44.91"/></g>
<line class="rule" x1="156.79000000000002" y1="66" x2="894" y2="66"/>
<g class="label"><path class="g" style="animation-delay:1.00s" d="M162.67 108.24Q160.85 108.24 159.61 107.60Q158.37 106.96 157.57 105.90L159.01 104.52Q159.81 105.48 160.71 105.93Q161.61 106.38 162.75 106.38Q164.07 106.38 164.78 105.78Q165.49 105.18 165.49 104.06Q165.49 103.16 164.97 102.67Q164.45 102.18 163.19 101.96L161.67 101.72Q160.67 101.56 159.99 101.19Q159.31 100.82 158.89 100.31Q158.47 99.80 158.28 99.17Q158.09 98.54 158.09 97.84Q158.09 95.86 159.37 94.83Q160.65 93.80 162.89 93.80Q164.55 93.80 165.72 94.33Q166.89 94.86 167.61 95.82L166.21 97.22Q165.63 96.52 164.84 96.09Q164.05 95.66 162.89 95.66Q161.65 95.66 NaN 96.19Q160.35 96.72 160.35 97.74Q160.35 98.60 160.86 99.09Q161.37 99.58 162.67 99.80L164.15 100.06Q166.03 100.40 166.89 101.43Q167.75 102.46 167.75 103.94Q167.75 104.90 167.42 105.70Q167.09 106.50 166.44 107.06Q165.79 107.62 164.84 107.93Q163.89 108.24 162.67 108.24"/><path class="g" style="animation-delay:1.04s" d="M185.25 108L176.51 108L176.51 94.04L185.25 94.04L185.25 95.92L178.75 95.92L178.75 99.98L185.01 99.98L185.01 101.86L178.75 101.86L178.75 106.12L185.25 106.12"/><path class="g" style="animation-delay:1.09s" d="M201.69 108L201.69 101.32L201.75 97.12L201.59 97.12L198.79 104.30L195.99 97.12L195.83 97.12L195.89 101.32L195.89 108L193.91 108L193.91 94.04L196.65 94.04L198.79 99.58L198.93 99.58L201.09 94.04L203.67 94.04L203.67 108"/><path class="g" style="animation-delay:1.14s" d="M222.41 108L220.03 108L218.97 104.28L214.53 104.28L213.47 108L211.19 108L215.27 94.04L218.33 94.04L222.41 108M218.55 102.42L216.83 96.30L216.67 96.30L214.95 102.42"/><path class="g" style="animation-delay:1.18s" d="M236.47 108L232.37 97.26L232.19 97.26L232.19 108L230.23 108L230.23 94.04L233.11 94.04L237.21 104.78L237.39 104.78L237.39 94.04L239.35 94.04L239.35 108"/><path class="g" style="animation-delay:1.23s" d="M258.29 95.92L253.91 95.92L253.91 108L251.67 108L251.67 95.92L247.29 95.92L247.29 94.04L258.29 94.04"/><path class="g" style="animation-delay:1.27s" d="M275.19 108L266.39 108L266.39 106.30L269.67 106.30L269.67 95.74L266.39 95.74L266.39 94.04L275.19 94.04L275.19 95.74L271.91 95.74L271.91 106.30L275.19 106.30"/><path class="g" style="animation-delay:1.31s" d="M289.19 108.24Q286.53 108.24 285.24 106.36Q283.95 104.48 283.95 101.02Q283.95 97.56 285.24 95.68Q286.53 93.80 289.19 93.80Q290.21 93.80 290.96 94.07Q291.71 94.34 292.25 94.81Q292.79 95.28 293.16 95.91Q293.53 96.54 293.77 97.26L291.75 97.94Q291.59 97.46 291.39 97.04Q291.19 96.62 290.89 96.32Q290.59 96.02 290.18 95.84Q289.77 95.66 289.17 95.66Q287.69 95.66 287.01 96.79Q286.33 97.92 286.33 99.84L286.33 102.20Q286.33 104.12 287.01 105.25Q287.69 106.38 289.17 106.38Q289.77 106.38 290.18 106.20Q290.59 106.02 290.89 105.72Q291.19 105.42 291.39 105Q291.59 104.58 291.75 104.10L293.77 104.78Q293.53 105.50 293.16 106.13Q292.79 106.76 292.25 107.23Q291.71 107.70 290.96 107.97Q290.21 108.24 289.19 108.24"/><path class="g" style="animation-delay:1.36s" d="M327.39 108L327.39 106.08L327.25 106.08Q327.07 106.50 326.82 106.89Q326.57 107.28 326.20 107.58Q325.83 107.88 325.31 108.06Q324.79 108.24 324.11 108.24Q321.93 108.24 320.83 106.38Q319.73 104.52 319.73 101.12Q319.73 97.56 320.99 95.68Q322.25 93.80 324.85 93.80Q325.87 93.80 326.64 94.08Q327.41 94.36 327.95 94.83Q328.49 95.30 328.85 95.93Q329.21 96.56 329.43 97.26L327.41 97.94Q327.25 97.48 327.05 97.07Q326.85 96.66 326.56 96.34Q326.27 96.02 325.86 95.84Q325.45 95.66 324.87 95.66Q323.41 95.66 322.76 96.79Q322.11 97.92 322.11 99.84L322.11 102.06Q322.11 103.02 322.25 103.82Q322.39 104.62 322.72 105.19Q323.05 105.76 323.58 106.08Q324.11 106.40 324.87 106.40Q326.09 106.40 326.74 105.67Q327.39 104.94 327.39 103.80L327.39 102.54L324.69 102.54L324.69 100.86L329.43 100.86L329.43 108"/><path class="g" style="animation-delay:1.41s" d="M340.69 102.36L340.69 108L338.47 108L338.47 94.04L343.69 94.04Q345.69 94.04 346.74 95.16Q347.79 96.28 347.79 98.24Q347.79 99.84 347.01 100.88Q346.23 101.92 344.77 102.16L347.99 108L345.51 108L342.55 102.36L340.69 102.36M340.69 100.56L343.37 100.56Q345.45 100.56 345.45 98.66L345.45 97.80Q345.45 95.90 343.37 95.90L340.69 95.90"/><path class="g" style="animation-delay:1.45s" d="M366.41 108L364.03 108L362.97 104.28L358.53 104.28L357.47 108L355.19 108L359.27 94.04L362.33 94.04L366.41 108M362.55 102.42L360.83 96.30L360.67 96.30L358.95 102.42"/><path class="g" style="animation-delay:1.50s" d="M380.35 108L377.23 108L373.29 94.04L375.71 94.04L377.55 101.08L378.77 105.82L378.89 105.82L380.11 101.08L381.97 94.04L384.29 94.04"/><path class="g" style="animation-delay:1.54s" d="M401.19 108L392.39 108L392.39 106.30L395.67 106.30L395.67 95.74L392.39 95.74L392.39 94.04L401.19 94.04L401.19 95.74L397.91 95.74L397.91 106.30L401.19 106.30"/><path class="g" style="animation-delay:1.58s" d="M420.29 95.92L415.91 95.92L415.91 108L413.67 108L413.67 95.92L409.29 95.92L409.29 94.04L420.29 94.04"/><path class="g" style="animation-delay:1.63s" d="M433.91 108L431.67 108L431.67 102.74L427.03 94.04L429.53 94.04L431.31 97.52L432.75 100.50L432.87 100.50L434.33 97.52L436.11 94.04L438.55 94.04L433.91 102.74"/><path class="g" style="animation-delay:1.67s" d="M466.75 108L464.51 108L464.51 94.04L473.49 94.04L473.49 95.92L466.75 95.92L466.75 99.98L472.87 99.98L472.87 101.86L466.75 101.86"/><path class="g" style="animation-delay:1.72s" d="M491.19 108L482.39 108L482.39 106.30L485.67 106.30L485.67 95.74L482.39 95.74L482.39 94.04L491.19 94.04L491.19 95.74L487.91 95.74L487.91 106.30L491.19 106.30"/><path class="g" style="animation-delay:1.77s" d="M509.25 108L500.51 108L500.51 94.04L509.25 94.04L509.25 95.92L502.75 95.92L502.75 99.98L509.01 99.98L509.01 101.86L502.75 101.86L502.75 106.12L509.25 106.12"/><path class="g" style="animation-delay:1.81s" d="M527.55 108L518.95 108L518.95 94.04L521.19 94.04L521.19 106.12L527.55 106.12"/><path class="g" style="animation-delay:1.85s" d="M536.43 108L536.43 94.04L540.59 94.04Q543.27 94.04 544.56 95.82Q545.85 97.60 545.85 101.02Q545.85 104.44 544.56 106.22Q543.27 108 540.59 108L536.43 108M538.65 106.16L540.45 106.16Q541.99 106.16 542.74 105.13Q543.49 104.10 543.49 102.18L543.49 99.86Q543.49 97.94 542.74 96.91Q541.99 95.88 540.45 95.88L538.65 95.88"/></g>
</svg>
