<?xml version="1.0" encoding="UTF-8"?>
<svg xmlns="http://www.w3.org/2000/svg" width="1012" height="180"
     viewBox="0 0 1012 180" role="img" aria-label="Unsmoothed 53-week contribution signal from GitHub contribution calendar">
  <title>Unsmoothed 53-week contribution signal from GitHub contribution calendar</title>
  
  <rect x="0.00" y="0.00" width="1012.00" height="180.00" rx="0" fill="#000000" opacity="1.000"/>
  <text x="36.00" y="32.00" fill="#888888" opacity="1.000" text-anchor="start" dominant-baseline="alphabetic" style="font-family:ui-monospace, 'SF Mono', Menlo, Consolas, monospace;font-size:10px;font-weight:400" letter-spacing="0.28em">03  ·  CONTRIBUTION SIGNAL</text>
  <text x="36.00" y="56.00" fill="#e7e7e7" opacity="1.000" text-anchor="start" dominant-baseline="alphabetic" style="font-family:Georgia, 'Times New Roman', Times, serif;font-size:13px;font-weight:400;font-style:italic">61 contributions across 53 weeks  ·  sparse, unsmoothed</text>
  <circle cx="36.00" cy="105.70" r="2.40" fill="#f5f5f5" opacity="0.730"/>
  <circle cx="325.23" cy="124.60" r="1.60" fill="#f5f5f5" opacity="0.590"/>
  <circle cx="379.46" cy="127.30" r="1.60" fill="#f5f5f5" opacity="0.570"/>
  <circle cx="397.54" cy="127.30" r="1.60" fill="#f5f5f5" opacity="0.570"/>
  <circle cx="722.92" cy="124.60" r="1.60" fill="#f5f5f5" opacity="0.590"/>
  <circle cx="741.00" cy="124.60" r="1.60" fill="#f5f5f5" opacity="0.590"/>
  <circle cx="777.15" cy="119.20" r="1.60" fill="#f5f5f5" opacity="0.630"/>
  <circle cx="795.23" cy="124.60" r="1.60" fill="#f5f5f5" opacity="0.590"/>
  <circle cx="813.31" cy="119.20" r="1.60" fill="#f5f5f5" opacity="0.630"/>
  <circle cx="831.38" cy="116.50" r="2.40" fill="#f5f5f5" opacity="0.650"/>
  <circle cx="849.46" cy="76.00" r="2.40" fill="#f5f5f5" opacity="0.950"/>
  <circle cx="867.54" cy="113.80" r="2.40" fill="#f5f5f5" opacity="0.670"/>
  <circle cx="957.92" cy="121.90" r="1.60" fill="#f5f5f5" opacity="0.610"/>
  <line x1="36.00" y1="130.00" x2="976.00" y2="130.00" stroke="rgba(255,255,255,0.20)" stroke-width="1.0" stroke-opacity="0.500"/>
  <polyline fill="none" stroke="#f5f5f5" stroke-width="1.35" stroke-opacity="0.7" points="36.0,105.7 54.1,130.0 72.2,130.0 90.2,130.0 108.3,130.0 126.4,130.0 144.5,130.0 162.5,130.0 180.6,130.0 198.7,130.0 216.8,130.0 234.8,130.0 252.9,130.0 271.0,130.0 289.1,130.0 307.2,130.0 325.2,124.6 343.3,130.0 361.4,130.0 379.5,127.3 397.5,127.3 415.6,130.0 433.7,130.0 451.8,130.0 469.8,130.0 487.9,130.0 506.0,130.0 524.1,130.0 542.2,130.0 560.2,130.0 578.3,130.0 596.4,130.0 614.5,130.0 632.5,130.0 650.6,130.0 668.7,130.0 686.8,130.0 704.8,130.0 722.9,124.6 741.0,124.6 759.1,130.0 777.2,119.2 795.2,124.6 813.3,119.2 831.4,116.5 849.5,76.0 867.5,113.8 885.6,130.0 903.7,130.0 921.8,130.0 939.8,130.0 957.9,121.9 976.0,130.0"/>
  <text x="849.46" y="68.00" fill="#6b6b6b" opacity="1.000" text-anchor="middle" dominant-baseline="alphabetic" style="font-family:ui-monospace, 'SF Mono', Menlo, Consolas, monospace;font-size:9px;font-weight:400">peak 20</text>
</svg>
