<svg xmlns="http://www.w3.org/2000/svg" width="378" height="86" viewBox="0 0 378 86" role="img" aria-label="Xinyue Zhang">
<style><![CDATA[

  .g{fill:#ece6da;opacity:1;transform-box:fill-box;transform-origin:50% 100%;
     animation:ink 1s cubic-bezier(.2,.7,.2,1) both;}
  @keyframes ink{from{opacity:0;transform:translateY(6px)}to{opacity:1;transform:translateY(0)}}
@media(prefers-reduced-motion:reduce){*{animation:none!important}}
]]></style>
<g><path class="g" style="animation-delay:0.10s" d="M33.39 59Q33.26 59 33.26 58.60Q33.26 58.21 33.39 58.21Q36.10 58.21 36.79 57.65Q37.48 57.09 36.49 55.63L15.04 23.23Q13.33 20.65 11.61 19.60Q9.89 18.54 7.52 18.54Q7.39 18.54 7.39 18.15Q7.39 17.75 7.52 17.75Q8.71 17.75 9.99 17.85Q11.28 17.95 12.40 17.95Q15.04 17.95 17.25 17.85Q19.46 17.75 21.11 17.75Q21.31 17.75 21.31 18.15Q21.31 18.54 21.11 18.54Q18.41 18.54 17.75 19.14Q17.09 19.73 18.01 21.18L39.53 53.52Q41.24 56.16 43.09 57.19Q44.94 58.21 47.78 58.21Q47.91 58.21 47.91 58.60Q47.91 59 47.78 59Q46.46 59 44.87 58.93Q43.29 58.87 41.57 58.87Q39 58.87 37.05 58.93Q35.11 59 33.39 59M7.32 59Q7.12 59 7.12 58.60Q7.12 58.21 7.32 58.21Q9.56 58.21 11.71 56.85Q13.85 55.50 15.70 52.93L26.13 38.61L26.86 39.27L17.09 52.93Q15.24 55.50 15.97 56.85Q16.69 58.21 19.79 58.21Q19.99 58.21 19.99 58.60Q19.99 59 19.79 59Q18.08 59 16.53 58.93Q14.98 58.87 12.40 58.87Q10.75 58.87 9.76 58.93Q8.77 59 7.32 59M37.81 24.48L27.85 38.14L27.12 37.55L36.43 24.42Q38.47 21.51 37.88 20.03Q37.28 18.54 34.18 18.54Q33.98 18.54 33.98 18.15Q33.98 17.75 34.18 17.75Q35.90 17.75 37.48 17.85Q39.07 17.95 41.57 17.95Q43.22 17.95 44.21 17.85Q45.20 17.75 46.66 17.75Q46.85 17.75 46.85 18.15Q46.85 18.54 46.66 18.54Q44.41 18.54 42.17 20.09Q39.92 21.64 37.81 24.48"/><path class="g" style="animation-delay:0.26s" d="M53.19 59Q53.06 59 53.06 58.60Q53.06 58.21 53.19 58.21Q55.90 58.21 56.72 57.35Q57.55 56.49 57.55 53.65L57.55 41.18Q57.55 38.80 57.08 37.72Q56.62 36.63 55.37 36.63Q54.77 36.63 54.02 36.86Q53.26 37.09 52.20 37.62Q51.94 37.68 51.77 37.32Q51.61 36.96 51.87 36.82L60.05 33Q60.25 32.93 60.32 32.93Q60.45 32.93 60.61 33.06Q60.78 33.19 60.78 33.39Q60.78 33.85 60.71 35.93Q60.65 38.01 60.65 41.11L60.65 53.65Q60.65 56.49 61.41 57.35Q62.17 58.21 64.94 58.21Q65.14 58.21 65.14 58.60Q65.14 59 64.94 59Q63.82 59 62.30 58.93Q60.78 58.87 59.06 58.87Q57.41 58.87 55.90 58.93Q54.38 59 53.19 59M58.54 24.94Q57.28 24.94 56.59 24.28Q55.90 23.62 55.90 22.44Q55.90 21.25 56.59 20.59Q57.28 19.93 58.54 19.93Q59.72 19.93 60.38 20.59Q61.04 21.25 61.04 22.44Q61.04 24.94 58.54 24.94"/><path class="g" style="animation-delay:0.43s" d="M88.70 59Q88.50 59 88.50 58.60Q88.50 58.21 88.70 58.21Q91.40 58.21 92.20 57.35Q92.99 56.49 92.99 53.65L92.99 42.63Q92.99 38.61 91.47 36.76Q89.95 34.91 86.72 34.91Q84.21 34.91 81.60 36.56Q79 38.21 77.08 41.11L76.82 40.32Q79.92 36.23 82.76 34.45Q85.60 32.67 88.50 32.67Q92.13 32.67 94.11 34.61Q96.09 36.56 96.09 40.65L96.09 53.65Q96.09 56.49 96.85 57.35Q97.61 58.21 100.38 58.21Q100.58 58.21 100.58 58.60Q100.58 59 100.38 59Q99.26 59 97.74 58.93Q96.22 58.87 94.57 58.87Q92.92 58.87 91.37 58.93Q89.82 59 88.70 59M70.94 59Q70.75 59 70.75 58.60Q70.75 58.21 70.94 58.21Q73.65 58.21 74.44 57.35Q75.23 56.49 75.23 53.65L75.23 40.45Q75.23 38.21 74.71 37.19Q74.18 36.16 72.86 36.16Q72.20 36.16 71.27 36.43Q70.35 36.69 69.16 37.15Q68.90 37.22 68.73 36.89Q68.57 36.56 68.83 36.43L76.16 33Q76.29 32.93 76.49 32.93Q76.95 32.93 77.64 34.28Q78.34 35.64 78.34 38.21L78.34 53.65Q78.34 56.49 79.09 57.35Q79.85 58.21 82.63 58.21Q82.82 58.21 82.82 58.60Q82.82 59 82.63 59Q81.50 59 79.99 58.93Q78.47 58.87 76.82 58.87Q75.17 58.87 73.62 58.93Q72.07 59 70.94 59"/><path class="g" style="animation-delay:0.59s" d="M130.54 33.52Q130.74 33.52 130.74 33.92Q130.74 34.32 130.54 34.32Q129.02 34.32 127.90 35.24Q126.78 36.16 125.79 38.87L117.54 60.85Q115.16 67.18 112.99 70.85Q110.81 74.51 108.47 76.03Q106.12 77.55 103.15 77.55Q101.90 77.55 100.94 76.95Q99.98 76.36 99.98 75.10Q99.98 74.31 100.55 73.88Q101.11 73.45 101.77 73.45Q103.09 73.45 103.78 73.82Q104.47 74.18 105.10 74.58Q105.73 74.97 106.78 74.97Q108.43 74.97 109.95 73.45Q111.47 71.94 113.22 68.31Q114.97 64.68 117.34 58.41L117.34 59.86L107.11 39Q105.66 36.10 104.84 35.21Q104.01 34.32 102.76 34.32Q102.62 34.32 102.62 33.92Q102.62 33.52 102.76 33.52Q103.75 33.52 104.80 33.59Q105.86 33.66 106.85 33.66Q108.96 33.66 110.58 33.59Q112.19 33.52 113.51 33.52Q113.65 33.52 113.65 33.92Q113.65 34.32 113.51 34.32Q111.47 34.32 110.25 34.84Q109.03 35.37 109.82 36.89L119.06 55.83L117.74 58.27L124.40 39.13Q125.39 36.23 124.34 35.27Q123.28 34.32 119.59 34.32Q119.45 34.32 119.45 33.92Q119.45 33.52 119.59 33.52Q121.17 33.52 122.59 33.59Q124.01 33.66 126.25 33.66Q127.64 33.66 128.50 33.59Q129.35 33.52 130.54 33.52"/><path class="g" style="animation-delay:0.75s" d="M143.28 59.46Q140.11 59.46 138.26 57.45Q136.42 55.44 136.42 51.41L136.42 41.18Q136.42 38.47 136.02 37.32Q135.62 36.16 134.50 36.16Q133.51 36.16 132.13 36.82Q131.86 36.96 131.70 36.56Q131.53 36.16 131.80 36.10L138.73 33Q138.86 32.93 138.99 32.93Q139.12 32.93 139.32 33.06Q139.52 33.19 139.52 33.39L139.52 49.43Q139.52 53.46 140.90 55.34Q142.29 57.22 145.06 57.22Q147.77 57.22 150.47 55.60Q153.18 53.98 155.23 51.15L155.56 51.87Q152.32 55.96 149.35 57.71Q146.38 59.46 143.28 59.46M157.07 33.39L157.07 52.07Q157.07 54.31 157.64 55.34Q158.20 56.36 159.52 56.36Q160.24 56.36 161.10 56.10Q161.96 55.83 163.21 55.37Q163.54 55.24 163.67 55.60Q163.81 55.96 163.54 56.10L156.15 59.53Q156.02 59.59 155.89 59.59Q155.42 59.59 154.73 58.24Q154.04 56.89 154.04 54.31L154.04 41.18Q154.04 38.47 153.61 37.32Q153.18 36.16 152.06 36.16Q151.07 36.16 149.68 36.82Q149.42 36.96 149.29 36.56Q149.15 36.16 149.42 36.10L156.35 33Q156.48 32.93 156.55 32.93Q156.68 32.93 156.88 33.06Q157.07 33.19 157.07 33.39"/><path class="g" style="animation-delay:0.92s" d="M178.26 59.79Q174.37 59.79 171.76 57.98Q169.15 56.16 167.83 53.26Q166.51 50.35 166.51 47.12Q166.51 43.09 168.36 39.89Q170.21 36.69 173.34 34.81Q176.48 32.93 180.17 32.93Q183.94 32.93 185.78 34.98Q187.63 37.02 187.63 40.45Q187.63 41.31 187.47 41.71Q187.30 42.10 186.84 42.10L183.74 42.10Q184.07 38.01 182.45 36.13Q180.83 34.25 178.06 34.25Q174.37 34.25 172.32 37.05Q170.27 39.86 170.27 44.74Q170.27 48.44 171.46 51.38Q172.65 54.31 174.96 56Q177.27 57.68 180.57 57.68Q182.88 57.68 184.37 56.99Q185.85 56.29 187.24 55.44Q187.37 55.30 187.60 55.60Q187.83 55.90 187.70 56.10Q185.39 58.08 183.04 58.93Q180.70 59.79 178.26 59.79M184.40 42.10L169.42 42.17L169.35 41.38L184.40 41.11"/><path class="g" style="animation-delay:1.08s" d="M210.47 58.14L237.26 19.40Q237.53 19.07 237.46 18.97Q237.40 18.87 236.93 18.87Q229.94 18.87 225.45 18.94Q220.96 19 218.35 19.33Q215.75 19.66 214.43 20.42Q213.11 21.18 212.41 22.47Q211.72 23.76 211.06 25.87Q211 26.07 210.60 25.97Q210.20 25.87 210.27 25.74L212.91 15.77Q212.98 15.64 213.37 15.70Q213.77 15.77 213.70 15.90Q213.50 17.09 214.23 17.42Q214.96 17.75 217.46 17.75Q221.42 17.75 227.17 17.75Q232.91 17.75 241.55 17.75Q241.88 17.75 242.02 18.05Q242.15 18.34 242.02 18.61L215.55 57.22Q215.29 57.55 215.35 57.65Q215.42 57.75 215.88 57.75Q221.69 57.75 226.21 57.75Q230.73 57.75 233.57 57.75Q236.67 57.75 238.62 57.05Q240.56 56.36 241.65 54.74Q242.74 53.13 243.20 50.42Q243.27 50.29 243.60 50.29Q243.93 50.29 243.93 50.42L243.01 58.47Q243.01 58.67 242.87 58.90Q242.74 59.13 242.41 59.13Q237.53 59.07 232.08 59.03Q226.64 59 221.19 59Q215.75 59 210.86 59Q210.60 59 210.44 58.70Q210.27 58.41 210.47 58.14"/><path class="g" style="animation-delay:1.25s" d="M248.15 59Q247.96 59 247.96 58.60Q247.96 58.21 248.15 58.21Q250.86 58.21 251.65 57.35Q252.44 56.49 252.44 53.65L252.44 19.40Q252.44 17.02 251.98 15.93Q251.52 14.85 250.33 14.85Q249.28 14.85 247.16 15.84Q246.90 15.97 246.74 15.60Q246.57 15.24 246.83 15.11L254.95 11.15Q255.02 11.15 255.02 11.15Q255.02 11.15 255.08 11.15Q255.28 11.15 255.41 11.28Q255.55 11.41 255.55 11.61L255.55 53.65Q255.55 56.49 256.34 57.35Q257.13 58.21 259.90 58.21Q260.03 58.21 260.03 58.60Q260.03 59 259.90 59Q258.71 59 257.23 58.93Q255.74 58.87 254.03 58.87Q252.38 58.87 250.83 58.93Q249.28 59 248.15 59M265.91 59Q265.71 59 265.71 58.60Q265.71 58.21 265.91 58.21Q268.61 58.21 269.41 57.35Q270.20 56.49 270.20 53.65L270.20 42.90Q270.20 35.04 263.99 35.04Q261.42 35.04 258.81 36.72Q256.21 38.41 254.29 41.25L254.03 40.45Q257.13 36.36 259.97 34.61Q262.81 32.86 265.78 32.86Q269.34 32.86 271.32 34.81Q273.30 36.76 273.30 40.85L273.30 53.65Q273.30 56.49 274.09 57.35Q274.88 58.21 277.66 58.21Q277.79 58.21 277.79 58.60Q277.79 59 277.66 59Q276.47 59 274.98 58.93Q273.50 58.87 271.78 58.87Q270.13 58.87 268.58 58.93Q267.03 59 265.91 59"/><path class="g" style="animation-delay:1.41s" d="M306.89 56.16L300.10 59.40Q299.83 59.53 299.57 59.53Q298.78 59.53 298.12 58.14Q297.46 56.76 297.46 54.12L297.46 41.38Q297.46 37.29 296.17 35.70Q294.88 34.12 292.97 34.12Q291.32 34.12 290.23 34.88Q289.14 35.64 288.58 36.76Q288.02 37.88 287.75 38.87Q287.62 39.53 287.29 40.42Q286.96 41.31 285.64 41.31Q284.65 41.31 284.16 40.72Q283.66 40.12 283.66 39.46Q283.66 38.34 284.85 37.19Q286.04 36.03 287.85 35.04Q289.67 34.05 291.65 33.46Q293.63 32.86 295.28 32.86Q297.98 32.86 299.24 34.61Q300.49 36.36 300.49 39.40L300.49 51.87Q300.49 54.25 301.05 55.34Q301.61 56.43 303 56.43Q304.25 56.43 306.63 55.44Q306.96 55.30 307.09 55.67Q307.22 56.03 306.89 56.16M288.41 59.46Q285.97 59.46 284.69 58.11Q283.40 56.76 283.40 54.97Q283.40 53.85 283.96 52.80Q284.52 51.74 285.94 50.75Q287.36 49.76 289.87 48.84L298.12 45.73L298.25 46.59L290.46 49.56Q289.07 50.09 288.35 50.72Q287.62 51.34 287.36 52.04Q287.09 52.73 287.09 53.46Q287.09 54.91 288.05 56.10Q289.01 57.28 290.86 57.28Q291.58 57.28 292.37 57.05Q293.17 56.82 294.29 56.16L298.71 53.59L298.84 54.38L293.89 57.48Q292.24 58.54 290.99 59Q289.73 59.46 288.41 59.46"/><path class="g" style="animation-delay:1.57s" d="M328.21 59Q328.01 59 328.01 58.60Q328.01 58.21 328.21 58.21Q330.92 58.21 331.71 57.35Q332.50 56.49 332.50 53.65L332.50 42.63Q332.50 38.61 330.98 36.76Q329.47 34.91 326.23 34.91Q323.72 34.91 321.12 36.56Q318.51 38.21 316.60 41.11L316.33 40.32Q319.43 36.23 322.27 34.45Q325.11 32.67 328.01 32.67Q331.64 32.67 333.62 34.61Q335.60 36.56 335.60 40.65L335.60 53.65Q335.60 56.49 336.36 57.35Q337.12 58.21 339.89 58.21Q340.09 58.21 340.09 58.60Q340.09 59 339.89 59Q338.77 59 337.25 58.93Q335.74 58.87 334.09 58.87Q332.44 58.87 330.88 58.93Q329.33 59 328.21 59M310.46 59Q310.26 59 310.26 58.60Q310.26 58.21 310.46 58.21Q313.16 58.21 313.96 57.35Q314.75 56.49 314.75 53.65L314.75 40.45Q314.75 38.21 314.22 37.19Q313.69 36.16 312.37 36.16Q311.71 36.16 310.79 36.43Q309.86 36.69 308.68 37.15Q308.41 37.22 308.25 36.89Q308.08 36.56 308.35 36.43L315.67 33Q315.80 32.93 316 32.93Q316.46 32.93 317.16 34.28Q317.85 35.64 317.85 38.21L317.85 53.65Q317.85 56.49 318.61 57.35Q319.37 58.21 322.14 58.21Q322.34 58.21 322.34 58.60Q322.34 59 322.14 59Q321.02 59 319.50 58.93Q317.98 58.87 316.33 58.87Q314.68 58.87 313.13 58.93Q311.58 59 310.46 59"/><path class="g" style="animation-delay:1.74s" d="M353.56 77.48Q348.94 77.48 346.46 75.40Q343.99 73.32 343.99 70.29Q343.99 66.85 346.86 63.85Q349.73 60.85 354.61 58.08L355.34 58.93Q353.16 59.99 351.31 61.21Q349.46 62.43 348.34 64.11Q347.22 65.80 347.22 68.37Q347.22 70.48 348.18 72.10Q349.13 73.72 351.08 74.61Q353.03 75.50 356 75.50Q360.82 75.50 363.95 73.06Q367.09 70.62 367.09 66.39Q367.09 63.69 365.73 62.50Q364.38 61.31 362 61.01Q359.63 60.72 356.46 60.72Q353.42 60.72 350.95 60.48Q348.47 60.25 347.02 59.26Q345.57 58.27 345.57 56.10Q345.57 53.85 346.96 52.30Q348.34 50.75 350.72 48.70L351.44 49.36Q349.79 50.75 349.13 51.84Q348.47 52.93 348.47 54.12Q348.47 55.44 349.36 56.23Q350.26 57.02 352.43 57.38Q354.61 57.75 358.44 57.75Q359.89 57.75 361.81 57.81Q363.72 57.88 365.57 58.41Q367.42 58.93 368.64 60.32Q369.86 61.71 369.86 64.35Q369.86 67.05 368.50 69.43Q367.15 71.80 364.84 73.62Q362.53 75.43 359.59 76.46Q356.66 77.48 353.56 77.48M355.67 50.22Q352.50 50.22 350.29 49.07Q348.08 47.91 346.89 45.97Q345.70 44.02 345.70 41.71Q345.70 39.33 346.92 37.38Q348.14 35.44 350.45 34.25Q352.76 33.06 356 33.06Q359.63 33.06 361.77 34.38Q363.92 35.70 364.84 37.68Q365.77 39.66 365.77 41.58Q365.77 43.75 364.61 45.73Q363.46 47.71 361.21 48.97Q358.97 50.22 355.67 50.22M356.86 49.30Q359.17 49.30 360.68 47.81Q362.20 46.33 362.20 42.90Q362.20 40.12 361.18 38.14Q360.16 36.16 358.44 35.08Q356.72 33.99 354.55 33.99Q352.24 33.99 350.72 35.41Q349.20 36.82 349.20 40.26Q349.20 43.42 350.39 45.44Q351.58 47.45 353.32 48.37Q355.07 49.30 356.86 49.30M362.20 35.97L361.61 37.95L361.61 35.70Q363.65 34.51 365.57 33.75Q367.48 33 369.79 33Q369.92 33 370.02 33.46Q370.12 33.92 370.12 34.38Q370.12 35.04 369.96 35.80Q369.79 36.56 369.53 36.43Q369.07 36.23 367.94 35.87Q366.82 35.50 365.24 35.50Q364.38 35.50 363.65 35.64Q362.93 35.77 362.20 35.97"/></g>
</svg>
